{"glyphs":{"0":{"ha":847,"x_min":0,"x_max":0,"o":"m 576 286 b 479 189 576 225 542 189 l 368 189 b 271 286 306 189 271 224 l 271 811 b 368 908 271 874 306 908 l 479 908 b 576 811 542 908 576 874 l 576 286 z m 771 847 b 521 1097 771 986 660 1097 l 326 1097 b 76 847 188 1097 76 986 l 76 250 b 326 0 76 110 188 0 l 521 0 b 771 250 660 0 771 111 z "},"1":{"ha":347,"x_min":0,"x_max":0,"o":"m 271 1097 l 76 1097 l 76 0 l 271 0 z "},"2":{"ha":847,"x_min":0,"x_max":0,"o":"m 771 189 l 346 189 b 365 218 346 189 347 201 l 668 492 b 771 713 744 561 771 629 l 771 847 b 521 1097 771 986 660 1097 l 326 1097 b 76 872 188 1097 76 982 l 271 822 b 368 908 271 876 310 908 l 479 908 b 576 811 542 908 576 874 l 576 742 b 519 621 576 693 563 661 l 196 326 b 76 82 122 258 76 165 l 76 0 l 771 0 z "},"3":{"ha":847,"x_min":0,"x_max":0,"o":"m 771 378 b 679 551 771 461 738 517 b 771 721 732 578 771 642 l 771 847 b 521 1097 771 986 660 1097 l 326 1097 b 76 874 188 1097 90 993 l 271 824 b 368 908 271 867 306 908 l 479 908 b 576 811 542 908 576 874 l 576 740 b 479 643 576 678 542 643 l 375 643 l 375 454 l 479 454 b 576 357 542 454 576 419 l 576 286 b 479 189 576 224 542 189 l 368 189 b 271 272 304 189 271 224 l 76 224 b 326 0 86 103 188 0 l 521 0 b 771 250 663 0 771 111 z "},"4":{"ha":847,"x_min":0,"x_max":0,"o":"m 296 422 l 465 732 l 465 422 z m 771 422 l 660 422 l 660 1097 l 465 1097 l 76 415 l 76 233 l 465 233 l 465 0 l 660 0 l 660 233 l 771 233 z "},"5":{"ha":847,"x_min":0,"x_max":0,"o":"m 771 422 b 521 672 771 561 660 672 l 303 672 l 344 908 l 753 908 l 753 1097 l 179 1097 l 76 492 l 264 433 b 346 483 272 461 297 483 l 479 483 b 576 386 542 483 576 449 l 576 286 b 479 189 576 221 542 189 l 368 189 b 271 251 304 189 276 211 l 76 200 b 326 0 97 85 189 0 l 521 0 b 771 250 660 0 771 111 z "},"6":{"ha":847,"x_min":0,"x_max":0,"o":"m 576 286 b 479 189 576 224 542 189 l 368 189 b 271 286 306 189 271 224 l 271 357 b 368 454 271 419 306 454 l 479 454 b 576 357 542 454 576 419 l 576 286 z m 771 393 b 521 643 771 532 660 643 l 271 643 l 271 811 b 368 908 271 874 306 908 l 479 908 b 576 821 542 908 574 874 l 769 869 b 521 1097 760 992 660 1097 l 326 1097 b 76 847 188 1097 76 986 l 76 250 b 326 0 76 110 188 0 l 521 0 b 771 250 660 0 771 111 z "},"7":{"ha":847,"x_min":0,"x_max":0,"o":"m 76 1097 l 76 908 l 561 908 l 197 0 l 406 0 l 771 918 l 771 1097 z "},"8":{"ha":847,"x_min":0,"x_max":0,"o":"m 576 286 b 479 189 576 224 540 189 l 368 189 b 271 286 306 189 271 224 l 271 357 b 368 454 271 419 306 454 l 479 454 b 576 357 543 454 576 419 l 576 286 z m 576 740 b 479 643 576 678 540 643 l 368 643 b 271 740 306 643 271 678 l 271 811 b 368 908 271 874 306 908 l 479 908 b 576 811 543 908 576 874 l 576 740 z m 771 371 b 679 550 771 475 729 517 b 771 726 721 574 771 622 l 771 847 b 521 1097 771 986 658 1097 l 326 1097 b 76 847 189 1097 76 986 l 76 726 b 168 550 76 621 126 574 b 76 371 118 517 76 475 l 76 250 b 326 0 76 111 188 0 l 521 0 b 771 250 658 0 771 111 z "},"9":{"ha":847,"x_min":0,"x_max":0,"o":"m 576 740 b 479 643 576 678 542 643 l 368 643 b 271 740 306 643 271 678 l 271 811 b 368 908 271 874 306 908 l 479 908 b 576 811 542 908 576 874 l 576 740 z m 771 847 b 521 1097 771 988 660 1097 l 326 1097 b 76 847 188 1097 76 986 l 76 704 b 326 454 76 565 188 454 l 576 454 l 576 286 b 479 189 576 224 542 189 l 368 189 b 271 276 306 189 274 224 l 78 228 b 326 0 88 106 188 0 l 521 0 b 771 250 660 0 771 111 z "}," ":{"ha":306,"x_min":0,"x_max":0,"o":""},"!":{"ha":347,"x_min":0,"x_max":0,"o":"m 271 189 l 76 189 l 76 0 l 271 0 z m 271 1097 l 76 1097 l 76 286 l 271 286 z "},"\"":{"ha":542,"x_min":0,"x_max":0,"o":"m 63 1181 l 97 833 l 208 833 l 243 1181 z m 299 1181 l 333 833 l 444 833 l 479 1181 z "},"#":{"ha":904,"x_min":0,"x_max":0,"o":"m 503 438 l 363 438 l 401 658 l 542 658 z m 747 825 l 778 992 l 601 992 l 571 825 l 431 825 l 461 993 l 285 993 l 254 825 l 140 825 l 111 658 l 225 658 l 186 438 l 71 438 l 42 271 l 157 271 l 128 104 l 304 104 l 333 271 l 474 271 l 444 103 l 621 103 l 650 271 l 767 271 l 796 438 l 679 438 l 718 658 l 833 658 l 863 825 z "},"$":{"ha":819,"x_min":0,"x_max":0,"o":"m 743 778 b 503 1000 732 906 628 1000 l 490 1000 l 490 1097 l 332 1097 l 332 1000 l 318 1000 b 76 758 183 1000 76 893 l 76 707 b 254 464 76 588 149 507 l 494 368 b 553 285 539 350 553 332 b 463 186 553 222 529 186 l 357 186 b 268 269 307 186 267 214 l 76 222 b 318 0 96 90 182 0 l 332 0 l 332 -99 l 490 -99 l 490 0 l 503 0 b 743 242 636 0 743 107 l 743 317 b 568 539 743 432 667 499 l 319 638 b 268 725 276 656 268 678 b 357 814 268 783 299 814 l 463 814 b 553 731 513 814 553 786 l 743 778 z "},"%":{"ha":1385,"x_min":0,"x_max":0,"o":"m 372 601 b 324 553 372 569 356 553 l 267 553 b 218 601 235 553 218 569 l 218 899 b 267 949 218 932 235 949 l 324 949 b 372 899 356 949 372 932 l 372 601 z m 1165 197 b 1117 147 1165 165 1150 147 l 1061 147 b 1013 197 1029 147 1013 164 l 1013 494 b 1061 544 1013 528 1029 544 l 1117 544 b 1165 494 1150 544 1165 528 l 1165 197 z m 521 922 b 350 1097 521 1019 444 1097 l 240 1097 b 69 922 146 1097 69 1019 l 69 579 b 240 404 69 481 146 404 l 350 404 b 521 578 444 404 521 482 z m 775 1099 l 443 0 l 603 0 l 935 1099 z m 1315 518 b 1143 693 1315 615 1239 693 l 1035 693 b 864 518 939 693 864 615 l 864 174 b 1035 -1 864 76 939 -1 l 1143 -1 b 1315 174 1239 -1 1315 76 z "},"&":{"ha":864,"x_min":0,"x_max":0,"o":"m 521 272 b 424 189 521 215 476 189 b 271 286 346 189 271 183 l 271 357 b 368 454 271 419 306 454 l 521 454 z m 801 189 b 715 275 743 189 715 218 l 715 454 l 801 454 l 801 643 l 715 643 l 715 713 l 521 713 l 521 643 l 396 643 b 299 740 333 643 299 678 b 396 908 299 819 286 908 l 424 908 b 521 824 474 908 521 878 l 715 874 b 465 1097 700 1000 593 1097 l 354 1097 b 104 847 215 1097 104 986 l 104 721 b 196 551 104 654 133 582 b 76 378 121 518 76 461 l 76 250 b 326 0 76 110 186 0 l 479 0 b 617 57 525 0 590 15 b 801 0 651 -1 743 0 z "},"’":{"ha":349,"x_min":0,"x_max":0,"o":"m 122 1208 l 42 868 l 147 832 l 293 1149 z "},"(":{"ha":528,"x_min":0,"x_max":0,"o":"m 451 -58 b 267 547 340 101 267 353 b 451 1153 267 742 340 993 l 290 1193 b 76 547 153 993 76 797 b 290 -97 76 297 153 103 l 451 -58 z "},")":{"ha":528,"x_min":0,"x_max":0,"o":"m 451 547 b 238 1193 451 797 375 993 l 76 1153 b 261 547 188 993 261 742 b 76 -58 261 353 188 101 l 238 -97 b 451 547 375 103 451 297 z "},"*":{"ha":500,"x_min":0,"x_max":0,"o":"m 346 882 l 458 951 l 414 1028 l 297 965 l 293 1097 l 206 1097 l 201 965 l 85 1028 l 42 951 l 153 882 l 42 811 l 85 736 l 200 797 l 206 665 l 293 665 l 299 796 l 414 736 l 458 811 z "},"+":{"ha":736,"x_min":0,"x_max":0,"o":"m 660 640 l 463 640 l 463 840 l 274 840 l 274 640 l 76 640 l 76 457 l 274 457 l 274 257 l 463 257 l 463 457 l 660 457 z "},",":{"ha":347,"x_min":0,"x_max":0,"o":"m 93 215 l 0 -158 l 110 -201 l 271 146 z "},"-":{"ha":444,"x_min":0,"x_max":0,"o":"m 417 571 l 28 571 l 28 382 l 417 382 z "},".":{"ha":347,"x_min":0,"x_max":0,"o":"m 271 189 l 76 189 l 76 0 l 271 0 z "},"/":{"ha":551,"x_min":0,"x_max":0,"o":"m 392 1194 l 0 -97 l 160 -97 l 551 1194 z "},":":{"ha":347,"x_min":0,"x_max":0,"o":"m 271 189 l 76 189 l 76 0 l 271 0 z m 271 643 l 76 643 l 76 454 l 271 454 z "},";":{"ha":347,"x_min":0,"x_max":0,"o":"m 93 215 l 0 -158 l 110 -201 l 271 146 z m 271 643 l 76 643 l 76 454 l 271 454 z "},"<":{"ha":875,"x_min":0,"x_max":0,"o":"m 785 368 l 324 546 l 785 724 l 785 936 l 90 647 l 90 447 l 785 157 z "},"=":{"ha":736,"x_min":0,"x_max":0,"o":"m 660 454 l 76 454 l 76 265 l 660 265 z m 660 829 l 76 829 l 76 643 l 660 643 z "},">":{"ha":875,"x_min":0,"x_max":0,"o":"m 785 647 l 90 936 l 90 724 l 551 546 l 90 368 l 90 157 l 785 447 z "},"?":{"ha":806,"x_min":0,"x_max":0,"o":"m 425 189 l 231 189 l 231 0 l 425 0 z m 729 847 b 479 1097 729 986 618 1097 l 313 1097 b 63 874 172 1097 69 990 l 257 824 b 354 908 260 869 290 908 l 438 908 b 535 811 500 908 535 874 l 535 794 b 486 690 535 756 518 719 l 304 525 b 231 354 261 486 231 418 l 231 286 l 425 286 l 425 313 b 471 414 425 357 436 382 l 646 572 b 729 763 693 615 729 689 z "},"@":{"ha":1411,"x_min":0,"x_max":0,"o":"m 765 244 b 679 172 757 193 731 172 l 614 172 b 553 244 564 172 544 193 l 556 256 b 642 329 564 307 590 329 l 781 329 z m 1338 413 b 810 1085 1404 788 1156 1085 b 74 426 468 1085 142 806 b 588 -258 7 53 233 -258 b 903 -178 710 -258 815 -222 l 849 -68 b 611 -124 783 -100 703 -124 b 213 413 318 -124 161 118 b 800 950 265 708 521 950 b 1199 413 1079 950 1250 708 b 1158 276 1190 371 1176 315 b 1015 151 1131 215 1089 151 b 946 269 943 151 931 185 l 1008 628 b 850 819 1028 739 963 819 l 679 819 b 454 640 565 819 474 751 l 453 629 l 611 588 b 696 649 622 628 644 649 l 764 649 b 824 575 814 649 833 626 l 811 500 l 615 500 b 389 307 504 500 408 417 l 368 194 b 528 0 349 83 417 0 l 628 0 b 806 86 706 0 760 33 b 960 0 828 35 872 0 l 981 0 b 1260 179 1103 0 1203 78 b 1338 413 1292 236 1324 335 z "},"A":{"ha":847,"x_min":0,"x_max":0,"o":"m 350 371 l 410 681 b 424 703 411 688 415 703 b 438 681 433 703 436 688 l 497 371 z m 518 1097 l 329 1097 l 76 0 l 278 0 l 314 182 l 533 182 l 569 0 l 771 0 z "},"B":{"ha":847,"x_min":0,"x_max":0,"o":"m 576 286 b 479 189 576 225 542 189 l 326 189 l 326 453 l 479 453 b 576 356 542 453 576 418 l 576 286 z m 576 739 b 479 642 576 676 542 642 l 326 642 l 326 908 l 479 908 b 576 811 542 908 576 874 l 576 739 z m 771 368 b 678 550 771 493 714 526 b 771 732 711 568 771 611 l 771 847 b 521 1097 771 986 660 1097 l 76 1097 l 76 908 l 132 908 l 132 189 l 76 189 l 76 0 l 521 0 b 771 250 660 0 771 111 z "},"C":{"ha":847,"x_min":0,"x_max":0,"o":"m 576 275 b 479 189 576 222 540 189 l 368 189 b 271 286 306 189 271 224 l 271 811 b 368 908 271 874 306 908 l 479 908 b 576 819 542 908 576 867 l 771 868 b 521 1097 760 990 660 1097 l 326 1097 b 76 847 188 1097 76 986 l 76 250 b 326 0 76 111 188 0 l 521 0 b 771 226 660 0 758 107 z "},"D":{"ha":847,"x_min":0,"x_max":0,"o":"m 576 286 b 479 189 576 222 542 189 l 326 189 l 326 908 l 479 908 b 576 811 542 908 576 874 l 576 286 z m 771 847 b 521 1097 771 986 660 1097 l 76 1097 l 76 908 l 132 908 l 132 189 l 76 189 l 76 0 l 521 0 b 771 250 660 0 771 111 z "},"E":{"ha":847,"x_min":0,"x_max":0,"o":"m 771 189 l 271 189 l 271 454 l 632 454 l 632 643 l 271 643 l 271 908 l 771 908 l 771 1097 l 76 1097 l 76 0 l 771 0 z "},"F":{"ha":847,"x_min":0,"x_max":0,"o":"m 771 1097 l 76 1097 l 76 0 l 271 0 l 271 454 l 632 454 l 632 643 l 271 643 l 271 908 l 771 908 z "},"G":{"ha":847,"x_min":0,"x_max":0,"o":"m 771 579 l 438 579 l 438 390 l 576 390 l 576 286 b 479 189 576 224 542 189 l 368 189 b 271 286 306 189 271 224 l 271 811 b 368 908 271 874 306 908 l 479 908 b 576 824 542 908 576 868 l 771 872 b 521 1097 753 997 660 1097 l 326 1097 b 76 847 188 1097 76 986 l 76 250 b 326 0 76 111 188 0 l 521 0 b 771 250 660 0 771 111 z "},"H":{"ha":847,"x_min":0,"x_max":0,"o":"m 771 1097 l 576 1097 l 576 643 l 271 643 l 271 1097 l 76 1097 l 76 0 l 271 0 l 271 454 l 576 454 l 576 0 l 771 0 z "},"I":{"ha":347,"x_min":0,"x_max":0,"o":"m 271 1097 l 76 1097 l 76 0 l 271 0 z "},"J":{"ha":847,"x_min":0,"x_max":0,"o":"m 771 1097 l 576 1097 l 576 286 b 479 189 576 224 542 189 l 368 189 b 271 275 306 189 271 226 l 76 226 b 326 0 92 99 192 0 l 521 0 b 771 250 660 0 771 111 z "},"K":{"ha":847,"x_min":0,"x_max":0,"o":"m 771 74 b 733 199 771 118 764 147 l 492 610 l 711 882 b 771 1038 756 938 771 983 l 771 1097 l 576 1097 l 576 1060 b 542 965 576 1021 571 1001 l 271 628 l 271 1097 l 76 1097 l 76 0 l 271 0 l 271 347 l 357 457 l 556 119 b 576 40 571 94 576 67 l 576 0 l 771 0 z "},"L":{"ha":847,"x_min":0,"x_max":0,"o":"m 771 189 l 271 189 l 271 1097 l 76 1097 l 76 0 l 771 0 z "},"M":{"ha":847,"x_min":0,"x_max":0,"o":"m 771 1097 l 590 1097 l 436 667 b 424 649 435 663 429 649 b 411 667 418 649 413 663 l 257 1097 l 76 1097 l 76 0 l 271 0 l 271 521 b 279 538 271 526 272 538 b 292 524 286 538 290 528 l 408 210 b 424 194 411 203 415 194 b 439 210 432 194 436 203 l 556 525 b 568 540 557 529 563 540 b 576 522 575 540 576 526 l 576 0 l 771 0 z "},"N":{"ha":847,"x_min":0,"x_max":0,"o":"m 771 1097 l 576 1097 l 576 456 l 260 1097 l 76 1097 l 76 0 l 271 0 l 271 639 l 589 0 l 771 0 z "},"O":{"ha":847,"x_min":0,"x_max":0,"o":"m 576 286 b 479 189 576 225 542 189 l 368 189 b 271 286 306 189 271 224 l 271 811 b 368 908 271 874 306 908 l 479 908 b 576 811 542 908 576 874 l 576 286 z m 771 847 b 521 1097 771 986 660 1097 l 326 1097 b 76 847 188 1097 76 986 l 76 250 b 326 0 76 110 188 0 l 521 0 b 771 250 660 0 771 111 z "},"P":{"ha":847,"x_min":0,"x_max":0,"o":"m 576 740 b 479 643 576 678 542 643 l 271 643 l 271 908 l 479 908 b 576 811 542 908 576 874 l 576 740 z m 771 847 b 521 1097 771 986 660 1097 l 76 1097 l 76 0 l 271 0 l 271 454 l 521 454 b 771 704 660 454 771 565 z "},"Q":{"ha":847,"x_min":0,"x_max":0,"o":"m 576 278 b 564 274 576 264 572 263 l 508 357 l 314 357 l 429 189 l 368 189 b 271 286 306 189 271 224 l 271 811 b 368 908 271 874 306 908 l 479 908 b 576 811 542 908 576 874 l 576 278 z m 699 76 b 771 250 735 108 771 168 l 771 847 b 521 1097 771 989 660 1097 l 326 1097 b 76 847 186 1097 76 986 l 76 250 b 326 0 76 111 188 0 l 518 0 b 556 4 533 0 546 1 l 578 -28 l 771 -28 z "},"R":{"ha":847,"x_min":0,"x_max":0,"o":"m 576 740 b 479 643 576 678 542 643 l 271 643 l 271 908 l 479 908 b 576 811 540 908 576 874 l 576 740 z m 601 457 b 771 706 706 483 771 567 l 771 847 b 521 1097 771 986 660 1097 l 76 1097 l 76 0 l 271 0 l 271 454 l 396 454 l 563 0 l 771 0 z "},"S":{"ha":847,"x_min":0,"x_max":0,"o":"m 771 357 b 589 586 771 472 696 543 l 328 690 b 271 797 281 710 271 735 l 271 811 b 368 908 271 874 306 908 l 479 908 b 576 821 542 908 572 875 l 771 869 b 521 1097 760 988 661 1097 l 326 1097 b 76 847 188 1097 76 986 l 76 765 b 261 514 76 628 167 551 l 514 413 b 576 324 563 393 576 372 l 576 286 b 479 189 576 224 542 189 l 368 189 b 271 279 306 189 274 222 l 76 231 b 326 0 90 103 188 0 l 521 0 b 771 250 660 0 771 111 z "},"T":{"ha":847,"x_min":0,"x_max":0,"o":"m 771 1097 l 76 1097 l 76 908 l 326 908 l 326 0 l 521 0 l 521 908 l 771 908 z "},"U":{"ha":847,"x_min":0,"x_max":0,"o":"m 771 1097 l 576 1097 l 576 286 b 479 189 576 224 542 189 l 368 189 b 271 286 306 189 271 224 l 271 1097 l 76 1097 l 76 250 b 326 0 76 111 186 0 l 521 0 b 771 250 660 0 771 111 z "},"V":{"ha":847,"x_min":0,"x_max":0,"o":"m 569 1097 l 438 476 b 424 454 436 471 432 454 b 410 476 415 454 411 471 l 278 1097 l 76 1097 l 331 0 l 517 0 l 771 1097 z "},"W":{"ha":849,"x_min":0,"x_max":0,"o":"m 576 1097 l 546 563 b 538 547 546 557 544 547 b 525 563 531 547 526 557 l 440 881 b 425 896 439 888 433 896 b 410 881 417 896 411 888 l 324 563 b 311 547 322 557 318 547 b 303 563 304 547 303 557 l 272 1097 l 76 1097 l 139 0 l 321 0 l 411 329 b 425 344 413 336 417 344 b 439 329 433 344 438 336 l 528 0 l 711 0 l 772 1097 z "},"X":{"ha":847,"x_min":0,"x_max":0,"o":"m 771 64 b 738 203 771 113 761 163 l 533 550 l 738 896 b 771 1035 761 936 771 986 l 771 1097 l 576 1097 l 576 1058 b 557 975 576 1031 572 1001 l 424 742 l 293 972 b 271 1058 278 1000 271 1031 l 271 1097 l 76 1097 l 76 1035 b 111 896 76 986 88 936 l 315 549 l 111 203 b 76 64 88 163 76 113 l 76 0 l 271 0 l 271 40 b 293 126 271 68 278 99 l 424 360 l 557 124 b 576 40 572 97 576 68 l 576 0 l 771 0 z "},"Y":{"ha":847,"x_min":0,"x_max":0,"o":"m 771 1097 l 576 1097 l 576 1054 b 558 964 576 1026 571 993 l 424 650 l 289 964 b 271 1054 276 992 271 1026 l 271 1097 l 76 1097 l 76 1032 b 111 883 76 983 86 938 l 326 404 l 326 0 l 521 0 l 521 404 l 736 883 b 771 1031 760 936 771 982 z "},"Z":{"ha":847,"x_min":0,"x_max":0,"o":"m 771 189 l 306 189 l 771 917 l 771 1097 l 76 1099 l 76 910 l 543 910 l 76 181 l 76 0 l 771 0 z "},"[":{"ha":372,"x_min":0,"x_max":0,"o":"m 400 -92 l 257 -92 l 257 1189 l 400 1189 l 400 1356 l 76 1356 l 76 -258 l 400 -258 z "},"\\":{"ha":551,"x_min":0,"x_max":0,"o":"m 160 1194 l 0 1194 l 392 -97 l 551 -97 z "},"]":{"ha":372,"x_min":0,"x_max":0,"o":"m 296 1356 l -28 1356 l -28 1189 l 115 1189 l 115 -92 l -28 -92 l -28 -258 l 296 -258 z "},"^":{"ha":851,"x_min":0,"x_max":0,"o":"m 497 1025 l 353 1025 l 76 501 l 272 501 l 419 779 l 576 501 l 775 501 z "},"_":{"ha":847,"x_min":0,"x_max":0,"o":"m 847 -125 l 0 -125 l 0 -278 l 847 -278 z "},"‘":{"ha":335,"x_min":0,"x_max":0,"o":"m 203 1208 l 56 892 l 226 832 l 307 1171 z "},"a":{"ha":692,"x_min":0,"x_max":0,"o":"m 442 244 b 372 175 442 196 421 175 l 306 175 b 236 244 258 175 236 196 l 236 256 b 306 326 236 306 257 326 l 442 326 l 442 244 z m 622 625 b 428 819 622 738 539 819 l 258 819 b 63 638 144 819 63 750 l 63 625 l 233 582 b 304 644 236 622 254 644 l 372 644 b 442 574 419 644 442 622 l 442 503 l 250 503 b 56 307 139 503 56 418 l 56 196 b 250 0 56 83 139 0 l 351 0 b 456 49 396 0 438 21 l 476 0 l 622 0 z "},"b":{"ha":726,"x_min":0,"x_max":0,"o":"m 476 246 b 407 175 476 197 456 175 l 319 175 b 250 246 271 175 250 197 l 250 574 b 319 644 250 622 271 644 l 407 644 b 476 574 456 644 476 622 l 476 246 z m 657 625 b 464 819 657 738 575 819 l 368 819 b 250 769 319 819 278 804 l 250 1097 l 69 1097 l 69 0 l 215 0 l 233 47 b 354 0 261 13 306 0 l 464 0 b 657 194 575 0 657 82 z "},"c":{"ha":715,"x_min":0,"x_max":0,"o":"m 465 238 b 396 175 463 194 442 175 l 319 175 b 250 246 271 175 250 197 l 250 574 b 319 644 250 622 271 644 l 396 644 b 465 582 442 644 463 625 l 646 628 b 453 819 644 739 564 819 l 263 819 b 69 625 151 819 69 738 l 69 194 b 263 0 69 82 151 0 l 453 0 b 646 192 563 0 644 81 z "},"d":{"ha":726,"x_min":0,"x_max":0,"o":"m 476 246 b 407 175 476 197 456 175 l 319 175 b 250 246 271 175 250 197 l 250 574 b 319 644 250 622 271 644 l 407 644 b 476 574 456 644 476 622 l 476 246 z m 657 1097 l 476 1097 l 476 769 b 358 819 449 804 407 819 l 263 819 b 69 625 151 819 69 738 l 69 194 b 263 0 69 82 151 0 l 375 0 b 492 49 428 0 467 17 l 513 0 l 657 0 z "},"e":{"ha":706,"x_min":0,"x_max":0,"o":"m 456 493 l 250 493 l 250 575 b 321 644 250 624 271 644 l 386 644 b 456 575 435 644 457 624 z m 636 624 b 442 819 636 736 554 819 l 263 819 b 69 625 151 819 69 736 l 69 194 b 265 0 69 82 153 0 l 435 0 b 629 182 547 0 629 69 l 629 194 l 458 238 b 389 175 456 197 438 175 l 321 175 b 250 246 274 175 250 197 l 250 317 l 636 317 z "},"f":{"ha":483,"x_min":0,"x_max":0,"o":"m 463 1096 l 285 1096 b 90 900 174 1096 90 1013 l 90 813 l 21 813 l 21 638 l 90 638 l 90 0 l 271 0 l 271 638 l 449 638 l 449 813 l 271 813 l 271 851 b 340 921 271 900 292 921 l 463 921 z "},"g":{"ha":726,"x_min":0,"x_max":0,"o":"m 476 285 b 407 215 476 236 456 215 l 319 215 b 250 285 271 215 250 236 l 250 574 b 319 644 250 622 271 644 l 407 644 b 476 574 456 644 476 622 l 476 285 z m 657 819 l 511 819 l 490 774 b 372 819 468 800 421 819 l 263 819 b 69 626 151 819 69 738 l 69 233 b 263 39 69 121 150 39 l 358 39 b 476 89 401 39 454 61 l 476 -32 b 407 -103 476 -81 454 -103 l 332 -103 b 261 -40 282 -103 264 -81 l 90 -83 l 90 -96 b 285 -278 90 -208 172 -278 l 463 -278 b 657 -85 575 -278 657 -197 z "},"h":{"ha":726,"x_min":0,"x_max":0,"o":"m 657 624 b 463 819 657 736 574 819 l 368 819 b 250 769 325 819 272 797 l 250 1097 l 69 1097 l 69 0 l 250 0 l 250 574 b 319 644 250 622 271 644 l 407 644 b 476 574 456 644 476 622 l 476 0 l 657 0 z "},"i":{"ha":319,"x_min":0,"x_max":0,"o":"m 250 819 l 69 819 l 69 0 l 250 0 z m 250 1096 l 69 1096 l 69 921 l 250 921 z "},"j":{"ha":319,"x_min":0,"x_max":0,"o":"m 250 819 l 69 819 l 69 -33 b 0 -103 69 -82 49 -103 l -56 -103 l -56 -278 l 69 -278 b 250 -103 181 -278 250 -215 z m 250 1096 l 69 1096 l 69 921 l 250 921 z "},"k":{"ha":726,"x_min":0,"x_max":0,"o":"m 657 51 b 624 149 657 85 649 108 l 429 467 l 606 657 b 657 774 643 699 657 733 l 657 819 l 474 819 l 474 792 b 442 725 474 763 468 751 l 250 517 l 250 1097 l 69 1097 l 69 0 l 250 0 l 250 294 l 296 347 l 456 90 b 474 31 468 71 474 51 l 474 -1 l 657 0 z "},"l":{"ha":319,"x_min":0,"x_max":0,"o":"m 250 1097 l 69 1097 l 69 0 l 250 0 z "},"m":{"ha":1024,"x_min":0,"x_max":0,"o":"m 954 624 b 761 819 954 736 874 819 l 714 819 b 564 746 643 819 592 788 b 415 819 536 788 485 819 l 368 819 b 250 769 325 819 272 797 l 250 819 l 69 819 l 69 0 l 250 0 l 250 574 b 319 644 250 622 271 644 l 351 644 b 421 574 400 644 421 622 l 421 0 l 603 0 l 603 574 b 672 644 603 622 624 644 l 704 644 b 774 574 753 644 774 622 l 774 0 l 954 0 z "},"n":{"ha":699,"x_min":0,"x_max":0,"o":"m 629 624 b 436 819 629 736 549 819 l 368 819 b 250 769 325 819 272 797 l 250 819 l 69 819 l 69 0 l 250 0 l 250 574 b 319 644 250 622 271 644 l 379 644 b 449 574 428 644 449 622 l 449 0 l 629 0 z "},"o":{"ha":715,"x_min":0,"x_max":0,"o":"m 465 246 b 396 175 465 197 444 175 l 319 175 b 250 246 271 175 250 197 l 250 574 b 319 644 250 622 271 644 l 396 644 b 465 574 444 644 465 622 l 465 246 z m 646 624 b 451 819 646 736 563 819 l 264 819 b 69 625 153 819 69 738 l 69 194 b 264 0 69 82 153 0 l 451 0 b 646 194 563 0 646 82 z "},"p":{"ha":726,"x_min":0,"x_max":0,"o":"m 476 246 b 407 176 476 197 456 176 l 319 176 b 250 246 271 176 250 197 l 250 574 b 319 644 250 622 271 644 l 407 644 b 476 574 456 644 476 622 l 476 246 z m 657 625 b 464 819 657 738 575 819 l 354 819 b 235 771 306 819 263 806 l 214 819 l 69 819 l 69 -278 l 250 -278 l 250 50 b 368 0 278 15 319 0 l 464 0 b 657 194 575 0 657 82 z "},"q":{"ha":726,"x_min":0,"x_max":0,"o":"m 476 246 b 407 176 476 197 456 176 l 319 176 b 250 246 271 176 250 197 l 250 574 b 319 644 250 622 271 644 l 407 644 b 476 574 456 644 476 622 l 476 246 z m 657 819 l 513 819 l 492 771 b 372 819 464 806 421 819 l 263 819 b 69 625 151 819 69 738 l 69 194 b 263 0 69 82 151 0 l 358 0 b 476 50 407 0 449 15 l 476 -278 l 657 -278 z "},"r":{"ha":501,"x_min":0,"x_max":0,"o":"m 488 800 b 410 822 469 814 438 822 l 365 822 b 250 747 328 822 272 803 l 250 819 l 69 819 l 69 0 l 250 0 l 250 574 b 319 644 250 622 271 643 l 378 644 b 446 631 417 644 428 642 l 488 800 z "},"s":{"ha":715,"x_min":0,"x_max":0,"o":"m 646 249 b 504 449 646 360 578 422 l 289 528 b 250 579 258 539 250 554 l 250 588 b 319 644 250 622 271 644 l 396 644 b 465 582 442 644 463 625 l 646 628 b 453 819 644 739 564 819 l 263 819 b 69 625 151 819 69 736 l 69 569 b 217 368 69 461 149 393 l 421 293 b 465 244 454 281 465 265 l 465 239 b 396 175 465 197 444 175 l 321 175 b 250 238 274 175 253 194 l 69 192 b 264 0 71 81 153 0 l 453 0 b 646 194 564 0 646 82 z "},"t":{"ha":497,"x_min":0,"x_max":0,"o":"m 463 175 l 340 175 b 271 244 292 175 271 196 l 271 638 l 449 638 l 449 813 l 271 813 l 271 1026 l 90 981 l 90 813 l 21 813 l 21 638 l 90 638 l 90 196 b 285 0 90 83 174 0 l 463 0 z "},"u":{"ha":699,"x_min":0,"x_max":0,"o":"m 629 819 l 449 819 l 449 244 b 379 175 449 196 428 175 l 319 175 b 250 244 271 175 250 196 l 250 819 l 69 819 l 69 196 b 263 -1 69 83 150 -1 l 331 -1 b 449 50 374 -1 426 22 l 449 0 l 629 0 z "},"v":{"ha":694,"x_min":0,"x_max":0,"o":"m 482 819 l 360 360 b 347 343 358 354 356 343 b 335 360 340 343 336 354 l 213 819 l 28 819 l 258 0 l 438 0 l 667 819 z "},"w":{"ha":799,"x_min":0,"x_max":0,"o":"m 586 819 l 526 401 b 514 385 526 396 522 385 b 501 401 507 385 503 396 l 415 663 b 400 679 411 676 406 679 b 385 663 394 679 389 676 l 297 401 b 285 385 296 396 293 385 b 272 401 278 385 274 396 l 213 819 l 28 819 l 161 0 l 313 0 l 388 253 b 400 268 392 265 393 268 b 413 253 406 268 408 265 l 488 0 l 639 0 l 771 819 z "},"x":{"ha":735,"x_min":0,"x_max":0,"o":"m 665 54 b 636 161 665 90 657 129 l 467 413 l 636 663 b 665 768 657 694 665 731 l 665 819 l 485 819 l 485 775 b 469 713 485 756 481 729 l 367 557 l 268 711 b 250 776 256 731 250 758 l 250 819 l 69 819 l 69 768 b 100 663 69 731 79 694 l 268 411 l 100 161 b 69 54 79 129 69 92 l 69 0 l 250 0 l 250 44 b 268 111 250 64 256 90 l 367 267 l 469 111 b 485 47 481 93 485 68 l 485 0 l 665 0 z "},"y":{"ha":694,"x_min":0,"x_max":0,"o":"m 482 819 l 358 346 b 346 329 357 340 354 329 b 333 346 339 329 335 340 l 213 819 l 28 819 l 258 0 l 250 -31 b 157 -103 236 -79 206 -103 l 101 -103 l 101 -278 l 176 -278 b 408 -99 279 -278 374 -225 l 667 819 z "},"z":{"ha":711,"x_min":0,"x_max":0,"o":"m 642 175 l 300 175 l 642 681 l 642 819 l 69 819 l 69 644 l 413 644 l 69 139 l 69 0 l 642 0 z "},"{":{"ha":419,"x_min":0,"x_max":0,"o":"m 447 -97 l 351 -97 b 299 -43 317 -97 299 -78 l 299 439 b 232 539 299 499 275 521 b 232 558 218 544 218 553 b 299 658 275 576 299 599 l 299 1142 b 351 1196 299 1176 317 1194 l 447 1196 l 447 1357 l 282 1357 b 126 1201 183 1357 126 1299 l 126 699 b 46 568 126 632 106 592 b 47 513 13 556 13 526 b 126 383 110 488 126 447 l 126 -103 b 282 -258 126 -200 183 -258 l 447 -258 z "},"|":{"ha":611,"x_min":0,"x_max":0,"o":"m 382 1194 l 229 1194 l 229 -97 l 382 -97 z "},"}":{"ha":419,"x_min":0,"x_max":0,"o":"m 374 568 b 293 699 314 592 293 632 l 293 1201 b 138 1357 293 1299 236 1357 l -28 1357 l -28 1196 l 68 1196 b 122 1142 103 1194 122 1176 l 122 658 b 188 558 122 599 146 576 b 188 539 201 553 201 544 b 122 439 146 521 122 499 l 122 -43 b 68 -97 122 -78 103 -97 l -28 -97 l -28 -258 l 138 -258 b 293 -103 236 -258 293 -200 l 293 383 b 372 513 293 447 310 488 b 374 568 408 526 408 556 z "},"~":{"ha":815,"x_min":0,"x_max":0,"o":"m 596 582 b 532 501 596 536 581 501 b 278 582 444 501 381 582 b 71 364 138 582 74 514 l 69 325 l 217 325 b 285 401 218 379 240 403 b 536 322 351 400 440 322 b 744 540 678 322 742 389 l 746 582 z "},"¡":{"ha":347,"x_min":0,"x_max":0,"o":"m 271 806 l 76 806 l 76 0 l 271 0 z m 271 1097 l 76 1097 l 76 903 l 271 903 z "},"¢":{"ha":715,"x_min":0,"x_max":0,"o":"m 465 419 b 397 357 463 376 443 357 l 321 357 b 250 428 272 357 250 379 l 250 756 b 321 826 250 804 272 826 l 397 826 b 465 764 443 826 463 807 l 646 810 b 453 1001 644 921 564 1001 l 435 1001 l 435 1097 l 279 1097 l 279 1001 l 263 1001 b 69 807 151 1001 69 919 l 69 376 b 263 182 69 264 151 182 l 279 182 l 279 85 l 435 85 l 435 182 l 453 182 b 646 374 563 182 644 263 z "},"£":{"ha":842,"x_min":0,"x_max":0,"o":"m 765 869 b 515 1097 756 989 656 1097 l 382 1097 b 132 849 236 1097 132 979 b 160 643 132 796 150 703 l 76 643 l 76 454 l 194 454 b 76 189 225 267 163 213 l 76 0 l 751 0 l 751 189 l 311 189 b 329 206 307 193 318 199 b 386 454 393 246 407 328 l 528 454 l 528 643 l 351 643 b 325 818 336 707 325 771 b 424 908 325 868 361 908 l 474 908 b 571 821 536 908 569 871 l 765 869 z "},"⁄":{"ha":551,"x_min":0,"x_max":0,"o":"m 392 1194 l 0 -97 l 160 -97 l 551 1194 z "},"¥":{"ha":847,"x_min":0,"x_max":0,"o":"m 771 451 l 542 451 l 574 521 l 771 521 l 771 688 l 647 688 l 736 883 b 771 1031 760 936 771 982 l 771 1097 l 576 1097 l 576 1054 b 558 964 576 1026 571 993 l 424 650 l 289 964 b 271 1054 276 992 271 1026 l 271 1097 l 76 1097 l 76 1032 b 111 883 76 983 86 938 l 200 688 l 79 688 l 79 521 l 274 521 l 306 451 l 79 451 l 79 285 l 326 285 l 326 0 l 521 0 l 521 285 l 771 285 z "},"ƒ":{"ha":639,"x_min":0,"x_max":0,"o":"m 435 1096 b 206 900 324 1096 225 1013 l 189 806 l 119 806 l 88 631 l 157 631 l 40 -33 b -42 -103 32 -82 7 -103 l -164 -103 l -194 -278 l -17 -278 b 213 -83 94 -278 193 -194 l 338 631 l 515 631 l 546 806 l 368 806 l 376 851 b 458 921 385 900 410 921 l 581 921 l 611 1096 z "},"§":{"ha":681,"x_min":0,"x_max":0,"o":"m 435 547 b 390 463 435 518 419 463 b 343 478 385 463 365 469 b 292 497 322 485 300 494 b 246 550 264 508 246 518 b 279 639 246 572 247 639 b 325 624 285 639 304 632 b 378 603 347 615 368 607 b 400 594 386 600 393 597 b 419 585 407 592 414 588 b 435 547 429 576 435 567 z m 611 908 b 428 1097 611 1019 533 1097 l 253 1097 b 69 911 147 1097 69 1018 b 69 857 69 892 69 874 b 76 808 71 840 72 824 b 124 722 83 778 96 751 b 69 588 88 688 69 638 l 69 535 b 208 343 69 446 128 372 l 397 274 b 435 233 418 265 435 256 b 376 174 435 190 418 174 l 306 174 b 247 233 268 174 249 189 l 69 189 b 254 0 71 78 149 0 l 428 0 b 611 186 535 0 611 79 b 611 240 611 206 611 224 b 606 289 610 257 608 274 b 560 376 599 319 586 349 b 611 510 594 411 611 460 l 611 560 b 478 751 611 651 561 721 l 279 825 b 247 868 256 833 247 844 b 306 922 247 908 264 922 l 375 922 b 435 864 413 922 432 908 l 611 908 z "},"¤":{"ha":919,"x_min":0,"x_max":0,"o":"m 588 549 b 461 421 588 478 532 421 b 332 550 389 421 332 478 b 458 676 332 619 389 676 b 588 549 532 676 588 621 z m 719 417 b 754 549 742 458 754 501 b 719 681 754 594 742 640 l 843 804 l 715 933 l 592 808 b 461 843 551 831 507 843 b 328 808 414 843 369 831 l 204 933 l 76 806 l 200 681 b 165 549 178 639 165 594 b 200 418 165 503 179 458 l 76 294 l 204 165 l 328 289 b 461 254 369 267 414 254 b 592 289 507 254 551 268 l 715 165 l 843 294 z "},"'":{"ha":306,"x_min":0,"x_max":0,"o":"m 63 1181 l 97 833 l 208 833 l 243 1181 z "},"“":{"ha":585,"x_min":0,"x_max":0,"o":"m 203 1208 l 56 892 l 226 832 l 307 1171 z m 453 1208 l 306 892 l 476 832 l 557 1171 z "},"«":{"ha":782,"x_min":0,"x_max":0,"o":"m 258 410 l 410 663 l 228 663 l 76 410 l 228 158 l 410 158 z m 556 410 l 706 663 l 525 663 l 374 410 l 525 158 l 706 158 z "},"‹":{"ha":486,"x_min":0,"x_max":0,"o":"m 258 410 l 410 663 l 228 663 l 76 410 l 228 158 l 410 158 z "},"›":{"ha":486,"x_min":0,"x_max":0,"o":"m 258 663 l 76 663 l 228 410 l 76 158 l 258 158 l 410 410 z "},"ﬁ":{"ha":803,"x_min":0,"x_max":0,"o":"m 463 1096 l 285 1096 b 90 900 174 1096 90 1013 l 90 813 l 21 813 l 21 638 l 90 638 l 90 0 l 271 0 l 271 638 l 449 638 l 449 813 l 271 813 l 271 851 b 340 921 271 900 292 921 l 463 921 z m 733 819 l 553 819 l 553 0 l 733 0 z m 733 1096 l 553 1096 l 553 921 l 733 921 z "},"ﬂ":{"ha":803,"x_min":0,"x_max":0,"o":"m 463 1096 l 285 1096 b 90 900 174 1096 90 1013 l 90 813 l 21 813 l 21 638 l 90 638 l 90 0 l 271 0 l 271 638 l 449 638 l 449 813 l 271 813 l 271 851 b 340 921 271 900 292 921 l 463 921 z m 733 1097 l 553 1097 l 553 0 l 733 0 z "},"–":{"ha":615,"x_min":0,"x_max":0,"o":"m 588 571 l 28 571 l 28 382 l 588 382 z "},"†":{"ha":469,"x_min":0,"x_max":0,"o":"m 407 958 l 282 958 l 282 1097 l 188 1097 l 188 958 l 63 958 l 63 871 l 188 871 l 188 411 l 282 411 l 282 871 l 407 871 z "},"‡":{"ha":469,"x_min":0,"x_max":0,"o":"m 407 638 l 282 638 l 282 871 l 407 871 l 407 958 l 282 958 l 282 1097 l 188 1097 l 188 958 l 63 958 l 63 871 l 188 871 l 188 638 l 63 638 l 63 550 l 188 550 l 188 411 l 282 411 l 282 550 l 407 550 z "},"·":{"ha":347,"x_min":0,"x_max":0,"o":"m 271 643 l 76 643 l 76 454 l 271 454 z "},"¶":{"ha":653,"x_min":0,"x_max":0,"o":"m 576 1097 l 326 1097 b 76 847 188 1097 76 986 l 76 701 b 326 451 76 561 188 451 l 382 451 l 382 0 l 576 0 z "},"•":{"ha":475,"x_min":0,"x_max":0,"o":"m 336 549 b 168 717 336 642 261 717 b 0 549 75 717 0 642 b 168 381 0 456 75 381 b 336 549 261 381 336 456 z "},"‚":{"ha":349,"x_min":0,"x_max":0,"o":"m 122 208 l 42 -132 l 147 -168 l 293 149 z "},"„":{"ha":599,"x_min":0,"x_max":0,"o":"m 122 208 l 42 -132 l 147 -168 l 293 149 z m 372 208 l 292 -132 l 397 -168 l 543 149 z "},"”":{"ha":599,"x_min":0,"x_max":0,"o":"m 122 1208 l 42 868 l 147 832 l 293 1149 z m 372 1208 l 292 868 l 397 832 l 543 1149 z "},"»":{"ha":782,"x_min":0,"x_max":0,"o":"m 258 663 l 76 663 l 228 410 l 76 158 l 258 158 l 410 410 z m 554 663 l 374 663 l 524 410 l 374 158 l 554 158 l 706 410 z "},"…":{"ha":981,"x_min":0,"x_max":0,"o":"m 263 181 l 76 181 l 76 0 l 263 0 z m 583 181 l 397 181 l 397 0 l 583 0 z m 904 181 l 718 181 l 718 0 l 904 0 z "},"‰":{"ha":1933,"x_min":0,"x_max":0,"o":"m 372 601 b 324 553 372 569 356 553 l 267 553 b 218 601 235 553 218 569 l 218 899 b 267 949 218 932 235 949 l 324 949 b 372 899 356 949 372 932 l 372 601 z m 1165 197 b 1117 147 1165 165 1150 147 l 1061 147 b 1013 197 1029 147 1013 164 l 1013 494 b 1061 544 1013 528 1029 544 l 1117 544 b 1165 494 1150 544 1165 528 l 1165 197 z m 1714 197 b 1665 147 1714 165 1699 147 l 1610 147 b 1561 197 1578 147 1561 164 l 1561 494 b 1610 544 1561 528 1578 544 l 1665 544 b 1714 494 1699 544 1714 528 l 1714 197 z m 521 922 b 350 1097 521 1019 444 1097 l 240 1097 b 69 922 146 1097 69 1019 l 69 579 b 240 404 69 481 146 404 l 350 404 b 521 578 444 404 521 482 z m 775 1099 l 443 0 l 603 0 l 935 1099 z m 1315 518 b 1143 693 1315 615 1239 693 l 1035 693 b 864 518 939 693 864 615 l 864 174 b 1035 -1 864 76 939 -1 l 1143 -1 b 1315 174 1239 -1 1315 76 z m 1864 518 b 1692 693 1864 615 1788 693 l 1583 693 b 1413 518 1488 693 1413 615 l 1413 174 b 1583 -1 1413 76 1488 -1 l 1692 -1 b 1864 174 1788 -1 1864 76 z "},"¿":{"ha":806,"x_min":0,"x_max":0,"o":"m 549 274 b 451 189 546 228 515 189 l 368 189 b 271 286 306 189 271 224 l 271 303 b 319 407 271 342 288 378 l 501 572 b 575 743 544 611 575 679 l 575 811 l 381 811 l 381 785 b 335 683 381 740 369 715 l 160 525 b 76 335 113 482 76 408 l 76 250 b 326 0 76 111 188 0 l 493 0 b 743 224 633 0 736 107 z m 575 1097 l 381 1097 l 381 908 l 575 908 z "},"`":{"ha":847,"x_min":0,"x_max":0,"o":"m 243 1161 l 133 1044 l 346 874 l 419 946 z "},"´":{"ha":847,"x_min":0,"x_max":0,"o":"m 408 1161 l 231 946 l 304 874 l 517 1044 z "},"ˆ":{"ha":847,"x_min":0,"x_max":0,"o":"m 450 1083 l 314 1083 l 156 908 l 297 874 l 382 967 l 465 875 l 607 910 z "},"˜":{"ha":847,"x_min":0,"x_max":0,"o":"m 514 1060 b 471 1007 514 1029 503 1007 b 301 1060 413 1007 369 1060 b 163 915 207 1060 165 1014 l 163 889 l 261 889 b 306 940 261 925 276 940 b 474 886 350 939 410 886 b 613 1032 568 886 610 932 l 613 1060 z "},"¯":{"ha":847,"x_min":0,"x_max":0,"o":"m 564 1029 l 139 1029 l 139 896 l 564 896 z "},"˘":{"ha":847,"x_min":0,"x_max":0,"o":"m 474 1072 b 358 1001 457 1010 415 1001 b 249 1072 301 1001 268 1015 l 136 1072 b 364 875 150 943 236 875 b 581 1072 488 875 574 946 z "},"˙":{"ha":847,"x_min":0,"x_max":0,"o":"m 492 1078 l 297 1078 l 297 889 l 492 889 z "},"¨":{"ha":847,"x_min":0,"x_max":0,"o":"m 304 1047 l 139 1047 l 139 889 l 304 889 z m 576 1047 l 408 1047 l 408 889 l 576 889 z "},"˚":{"ha":847,"x_min":0,"x_max":0,"o":"m 413 1039 b 358 981 413 1007 390 981 b 303 1039 326 981 303 1007 b 358 1096 303 1069 326 1096 b 413 1039 390 1096 413 1069 z m 514 1038 b 358 1201 514 1125 449 1201 b 201 1038 268 1201 201 1125 b 358 875 201 950 268 875 b 514 1038 449 875 514 950 z "},"¸":{"ha":847,"x_min":0,"x_max":0,"o":"m 550 -164 b 447 -49 550 -68 510 -49 l 463 29 l 340 29 l 317 -111 b 365 -111 339 -111 365 -111 b 418 -156 401 -111 418 -124 b 368 -200 418 -185 401 -200 b 297 -201 368 -200 321 -201 l 297 -278 l 417 -278 b 550 -164 510 -278 550 -253 z "},"˝":{"ha":847,"x_min":0,"x_max":0,"o":"m 296 1149 l 190 921 l 269 874 l 417 1071 z m 504 1149 l 399 921 l 478 874 l 625 1071 z "},"˛":{"ha":847,"x_min":0,"x_max":0,"o":"m 535 -172 b 461 -192 508 -186 488 -192 b 394 -133 417 -192 394 -169 b 494 13 394 -96 421 -33 l 397 19 b 239 -181 307 -21 239 -100 b 382 -317 239 -264 300 -317 b 507 -281 428 -317 471 -303 l 535 -172 z "},"ˇ":{"ha":847,"x_min":0,"x_max":0,"o":"m 442 1099 l 357 1006 l 274 1097 l 132 1063 l 289 889 l 425 889 l 583 1064 z "},"—":{"ha":940,"x_min":0,"x_max":0,"o":"m 913 571 l 28 571 l 28 382 l 913 382 z "},"Æ":{"ha":1097,"x_min":0,"x_max":0,"o":"m 350 371 l 410 681 b 424 703 411 688 415 703 b 438 681 433 703 436 688 l 497 371 z m 1021 189 l 728 189 l 667 454 l 882 454 l 882 643 l 622 643 l 561 908 l 1021 908 l 1021 1097 l 329 1097 l 76 0 l 278 0 l 314 182 l 533 182 l 569 0 l 1021 0 z "},"ª":{"ha":456,"x_min":0,"x_max":0,"o":"m 293 713 b 247 665 293 679 279 665 l 203 665 b 156 713 171 665 156 679 l 156 719 b 203 767 156 753 169 767 l 293 767 l 293 713 z m 414 967 b 283 1097 414 1043 358 1097 l 169 1097 b 39 976 94 1097 39 1051 l 39 967 l 154 939 b 201 979 156 965 168 979 l 247 979 b 293 932 278 979 293 965 l 293 885 l 165 885 b 35 754 90 885 35 829 l 35 679 b 165 549 35 604 90 549 l 233 549 b 303 581 263 549 290 563 l 317 549 l 414 549 z "},"Ł":{"ha":847,"x_min":0,"x_max":0,"o":"m 771 189 l 271 189 l 271 478 l 421 515 l 382 669 l 271 643 l 271 1097 l 76 1097 l 76 594 l 0 576 l 35 419 l 76 429 l 76 0 l 771 0 z "},"Ø":{"ha":847,"x_min":0,"x_max":0,"o":"m 271 310 l 271 811 b 368 908 271 874 306 908 l 453 908 z m 576 286 b 479 189 576 225 542 189 l 394 189 l 576 790 z m 771 847 b 657 1057 771 936 726 1013 l 699 1194 l 539 1194 l 510 1097 l 326 1097 b 76 847 188 1097 76 986 l 76 250 b 189 40 76 161 121 85 l 147 -97 l 307 -97 l 336 0 l 521 0 b 771 250 660 0 771 111 z "},"Œ":{"ha":1236,"x_min":0,"x_max":0,"o":"m 563 286 b 465 189 563 225 528 189 l 368 189 b 271 286 306 189 271 224 l 271 811 b 368 908 271 874 306 908 l 465 908 b 563 811 528 908 563 874 l 563 286 z m 1160 189 l 757 189 l 757 454 l 1021 454 l 1021 643 l 757 643 l 757 908 l 1160 908 l 1160 1097 l 576 1097 l 576 1061 b 465 1097 553 1085 507 1097 l 326 1097 b 76 847 188 1097 76 986 l 76 250 b 326 0 76 110 188 0 l 465 0 b 576 36 508 0 547 13 l 576 0 l 1160 0 z "},"º":{"ha":469,"x_min":0,"x_max":0,"o":"m 307 713 b 260 665 307 681 293 665 l 210 665 b 163 713 176 665 163 681 l 163 932 b 210 979 163 965 176 979 l 260 979 b 307 932 293 979 307 965 l 307 713 z m 428 967 b 297 1097 428 1042 372 1097 l 172 1097 b 42 967 97 1097 42 1043 l 42 678 b 172 549 42 603 97 549 l 297 549 b 428 679 372 549 428 604 z "},"æ":{"ha":1076,"x_min":0,"x_max":0,"o":"m 440 228 b 372 175 436 192 414 175 l 306 175 b 236 244 258 175 236 196 l 236 256 b 306 326 236 306 257 326 l 440 326 l 440 228 z m 826 493 l 622 493 l 622 592 b 692 644 626 628 649 644 l 757 644 b 826 575 806 644 828 624 z m 1007 624 b 813 819 1007 736 925 819 l 640 819 b 532 778 603 819 554 806 b 421 819 508 806 460 819 l 258 819 b 63 638 144 819 63 750 l 63 625 l 233 582 b 304 644 236 622 254 644 l 372 644 b 440 593 413 644 435 628 l 440 503 l 250 503 b 56 307 139 503 56 418 l 56 196 b 250 0 56 83 139 0 l 388 0 b 519 51 429 0 497 21 b 653 0 540 21 596 0 l 806 0 b 1000 182 919 0 1000 69 l 1000 194 l 829 238 b 760 175 826 197 810 175 l 692 175 b 622 229 650 175 626 192 l 622 317 l 1007 317 z "},"ı":{"ha":319,"x_min":0,"x_max":0,"o":"m 250 819 l 69 819 l 69 0 l 250 0 z "},"ł":{"ha":333,"x_min":0,"x_max":0,"o":"m 315 651 l 257 638 l 257 1097 l 76 1097 l 76 593 l 0 575 l 35 418 l 76 428 l 76 0 l 257 0 l 257 474 l 354 497 z "},"ø":{"ha":715,"x_min":0,"x_max":0,"o":"m 465 246 b 396 175 465 197 444 175 l 356 175 l 465 538 l 465 246 z m 250 283 l 250 574 b 319 644 250 622 271 644 l 360 644 z m 646 624 b 544 797 646 701 606 765 l 581 917 l 443 917 l 413 819 l 264 819 b 69 625 153 819 69 738 l 69 194 b 171 22 69 117 110 54 l 135 -97 l 272 -97 l 301 0 l 451 0 b 646 194 563 0 646 82 z "},"œ":{"ha":1101,"x_min":0,"x_max":0,"o":"m 465 246 b 396 175 465 197 444 175 l 319 175 b 250 246 271 175 250 197 l 250 574 b 319 644 250 622 271 644 l 396 644 b 465 578 443 644 465 624 l 465 574 l 465 538 l 465 246 z m 851 493 l 646 493 l 646 575 b 717 644 646 624 667 644 l 782 644 b 851 575 831 644 853 624 z m 1032 624 b 838 819 1032 736 950 819 l 658 819 b 556 778 619 819 583 804 b 451 819 528 806 490 819 l 264 819 b 69 625 153 819 69 738 l 69 194 b 264 0 69 82 153 0 l 451 0 b 556 42 490 0 532 19 b 661 0 576 21 621 0 l 831 0 b 1025 182 943 0 1025 69 l 1025 194 l 854 238 b 785 175 851 197 835 175 l 717 175 b 646 246 669 175 646 197 l 646 317 l 1032 317 z "},"ß":{"ha":707,"x_min":0,"x_max":0,"o":"m 638 394 b 544 564 638 507 582 547 b 638 732 581 579 638 619 l 638 903 b 443 1097 638 1014 554 1097 l 264 1097 b 69 900 153 1097 69 1013 l 69 0 l 250 0 l 250 851 b 319 922 250 900 269 922 l 396 922 b 457 853 439 922 457 899 l 457 735 b 388 651 457 685 436 651 l 304 651 l 304 476 l 388 476 b 457 407 436 476 457 456 l 457 244 b 388 175 457 196 436 175 l 304 175 l 304 0 l 443 0 b 638 194 554 0 638 83 z "},"¹":{"ha":289,"x_min":0,"x_max":0,"o":"m 219 1097 l 69 1097 l 69 406 l 219 406 z "},"¬":{"ha":847,"x_min":0,"x_max":0,"o":"m 771 768 l 76 768 l 76 579 l 576 579 l 576 267 l 771 267 z "},"µ":{"ha":699,"x_min":0,"x_max":0,"o":"m 629 819 l 449 819 l 449 244 b 379 175 449 196 428 175 l 319 175 b 250 244 271 175 250 196 l 250 819 l 69 819 l 69 -278 l 250 -278 l 250 50 b 368 -1 272 22 325 -1 l 436 -1 b 629 196 549 -1 629 83 z "},"™":{"ha":868,"x_min":0,"x_max":0,"o":"m 410 1097 l 63 1097 l 63 1003 l 188 1003 l 188 549 l 285 549 l 285 1003 l 410 1003 z m 806 1097 l 715 1097 l 639 882 b 632 874 638 879 635 874 b 625 882 629 874 626 879 l 549 1097 l 458 1097 l 458 549 l 556 549 l 556 810 b 560 818 556 811 556 818 b 567 811 563 818 565 813 l 625 654 b 632 646 625 650 628 646 b 640 654 636 646 639 650 l 699 811 b 704 819 699 814 701 819 b 708 810 708 819 708 813 l 708 549 l 806 549 z "},"Ð":{"ha":847,"x_min":0,"x_max":0,"o":"m 576 286 b 479 189 576 222 542 189 l 326 189 l 326 454 l 438 454 l 438 643 l 326 643 l 326 908 l 479 908 b 576 811 542 908 576 874 l 576 286 z m 771 847 b 521 1097 771 986 660 1097 l 76 1097 l 76 908 l 132 908 l 132 643 l 76 643 l 76 454 l 132 454 l 132 189 l 76 189 l 76 0 l 521 0 b 771 250 660 0 771 111 z "},"½":{"ha":1113,"x_min":0,"x_max":0,"o":"m 219 1097 l 69 1097 l 69 406 l 219 406 z m 515 1099 l 183 0 l 343 0 l 675 1099 z m 1043 146 l 818 146 b 832 164 818 149 821 154 l 978 300 b 1043 444 1026 344 1043 389 l 1043 525 b 882 692 1043 617 971 692 l 768 692 b 606 528 679 692 606 615 l 751 489 b 792 546 751 532 765 546 l 857 546 b 899 503 885 546 899 532 l 899 461 b 871 401 899 438 893 422 l 681 224 b 606 65 635 181 606 121 l 606 0 l 1043 0 z "},"±":{"ha":736,"x_min":0,"x_max":0,"o":"m 660 294 l 76 294 l 76 106 l 660 106 z m 660 785 l 463 785 l 463 985 l 274 985 l 274 785 l 76 785 l 76 601 l 274 601 l 274 401 l 463 401 l 463 601 l 660 601 z "},"Þ":{"ha":847,"x_min":0,"x_max":0,"o":"m 576 514 b 479 417 576 451 542 417 l 271 417 l 271 682 l 479 682 b 576 585 542 682 576 647 l 576 514 z m 771 621 b 521 871 771 760 660 871 l 271 871 l 271 1097 l 76 1097 l 76 0 l 271 0 l 271 228 l 521 228 b 771 478 660 228 771 339 z "},"¼":{"ha":1029,"x_min":0,"x_max":0,"o":"m 685 286 l 750 407 l 750 286 z m 219 1097 l 69 1097 l 69 406 l 219 406 z m 515 1099 l 183 0 l 343 0 l 675 1099 z m 960 286 l 896 286 l 896 692 l 757 692 l 522 269 l 522 140 l 750 140 l 750 0 l 896 0 l 896 140 l 960 140 z "},"÷":{"ha":736,"x_min":0,"x_max":0,"o":"m 465 357 l 271 357 l 271 168 l 465 168 z m 660 643 l 76 643 l 76 454 l 660 454 z m 465 929 l 271 929 l 271 740 l 465 740 z "},"¦":{"ha":611,"x_min":0,"x_max":0,"o":"m 382 454 l 229 454 l 229 -97 l 382 -97 z m 382 1194 l 229 1194 l 229 643 l 382 643 z "},"°":{"ha":557,"x_min":0,"x_max":0,"o":"m 367 878 b 278 788 367 828 328 788 b 188 878 228 788 188 828 b 278 968 188 926 228 968 b 367 878 328 968 367 926 z m 501 876 b 278 1099 501 1001 401 1099 b 56 876 154 1099 56 1000 b 278 654 56 753 154 654 b 501 876 401 654 501 753 z "},"þ":{"ha":726,"x_min":0,"x_max":0,"o":"m 476 246 b 407 176 476 197 456 176 l 319 176 b 250 246 271 176 250 197 l 250 574 b 319 644 250 622 271 644 l 407 644 b 476 574 456 644 476 622 l 476 246 z m 657 625 b 464 819 657 738 575 819 l 368 819 b 250 774 326 819 275 803 l 250 1097 l 69 1097 l 69 819 l 69 -278 l 250 -278 l 250 50 b 368 0 272 22 325 0 l 464 0 b 657 194 575 0 657 82 z "},"¾":{"ha":1283,"x_min":0,"x_max":0,"o":"m 939 286 l 1004 407 l 1004 286 z m 508 649 b 467 753 508 694 493 729 b 508 856 492 775 508 813 l 508 931 b 347 1097 508 1024 436 1097 l 233 1097 b 69 935 146 1097 81 1028 l 215 896 b 257 951 215 933 228 951 l 322 951 b 364 910 350 951 364 939 l 364 867 b 322 824 364 838 350 824 l 246 824 l 246 679 l 322 679 b 364 636 350 679 364 665 l 364 594 b 322 551 364 565 350 551 l 257 551 b 215 606 226 551 215 567 l 69 568 b 225 406 75 492 133 406 l 347 406 b 508 572 438 406 508 481 z m 769 1099 l 438 0 l 597 0 l 929 1099 z m 1214 286 l 1149 286 l 1149 692 l 1011 692 l 776 269 l 776 140 l 1004 140 l 1004 0 l 1149 0 l 1149 140 l 1214 140 z "},"²":{"ha":576,"x_min":0,"x_max":0,"o":"m 507 551 l 282 551 b 296 569 281 554 285 560 l 442 706 b 507 850 490 750 507 796 l 507 931 b 344 1097 507 1024 435 1097 l 232 1097 b 69 933 142 1097 69 1021 l 214 896 b 256 951 214 939 229 951 l 321 951 b 363 910 349 951 363 938 l 363 868 b 333 807 363 843 356 828 l 144 631 b 69 471 99 588 69 526 l 69 406 l 507 406 z "},"®":{"ha":1260,"x_min":0,"x_max":0,"o":"m 740 669 b 678 607 740 629 718 607 l 543 607 l 543 779 l 678 779 b 740 715 717 779 740 757 l 740 669 z m 757 486 b 867 647 825 504 867 557 l 867 739 b 704 901 867 829 794 901 l 417 901 l 417 190 l 543 190 l 543 485 l 624 485 l 732 190 l 867 190 z m 1076 547 b 629 101 1076 300 878 101 b 183 547 382 101 183 300 b 629 994 183 796 382 994 b 1076 547 878 994 1076 796 z m 1183 547 b 629 1101 1183 854 936 1101 b 76 547 324 1101 76 853 b 629 -6 76 242 324 -6 b 1183 547 936 -6 1183 242 z "},"−":{"ha":736,"x_min":0,"x_max":0,"o":"m 660 643 l 76 643 l 76 454 l 660 454 z "},"ð":{"ha":715,"x_min":0,"x_max":0,"o":"m 465 246 b 396 175 465 197 444 175 l 319 175 b 250 246 271 175 250 197 l 250 574 b 319 644 250 622 271 644 l 396 644 b 465 574 444 644 465 622 l 465 246 z m 646 624 b 600 753 646 674 628 718 l 456 940 l 532 960 l 499 1100 l 360 1065 l 336 1097 l 121 1097 l 179 1021 l 106 1003 l 140 863 l 275 896 l 333 819 l 264 819 b 69 625 153 819 69 738 l 69 194 b 264 0 69 82 153 0 l 451 0 b 646 194 563 0 646 82 z "},"×":{"ha":744,"x_min":0,"x_max":0,"o":"m 503 549 l 654 700 l 522 831 l 372 679 l 221 831 l 90 700 l 242 549 l 90 397 l 221 267 l 372 418 l 522 267 l 654 397 z "},"³":{"ha":578,"x_min":0,"x_max":0,"o":"m 508 649 b 467 753 508 694 493 729 b 508 856 492 775 508 813 l 508 931 b 347 1097 508 1024 436 1097 l 233 1097 b 69 935 146 1097 81 1028 l 215 896 b 257 951 215 933 228 951 l 322 951 b 364 910 350 951 364 939 l 364 867 b 322 824 364 838 350 824 l 246 824 l 246 679 l 322 679 b 364 636 350 679 364 665 l 364 594 b 322 551 364 565 350 551 l 257 551 b 215 606 226 551 215 567 l 69 568 b 225 406 75 492 133 406 l 347 406 b 508 572 438 406 508 481 z "},"©":{"ha":1260,"x_min":0,"x_max":0,"o":"m 721 390 b 658 335 719 351 700 335 l 590 335 b 528 399 546 335 528 354 l 528 693 b 590 757 528 738 546 757 l 658 757 b 721 701 700 757 719 740 l 885 743 b 710 915 883 843 810 915 l 539 915 b 364 740 438 915 364 842 l 364 351 b 539 176 364 250 438 176 l 710 176 b 885 349 810 176 883 249 z m 1076 547 b 629 101 1076 300 878 101 b 183 547 382 101 183 300 b 629 994 183 796 382 994 b 1076 547 878 994 1076 796 z m 1183 547 b 629 1101 1183 854 936 1101 b 76 547 324 1101 76 853 b 629 -6 76 242 324 -6 b 1183 547 936 -6 1183 242 z "},"Á":{"ha":847,"x_min":0,"x_max":0,"o":"m 350 371 l 410 681 b 424 703 411 688 415 703 b 438 681 433 703 436 688 l 497 371 z m 518 1097 l 329 1097 l 76 0 l 278 0 l 314 182 l 533 182 l 569 0 l 771 0 z m 490 1439 l 314 1224 l 386 1151 l 599 1322 z "},"Â":{"ha":847,"x_min":0,"x_max":0,"o":"m 350 371 l 410 681 b 424 703 411 688 415 703 b 438 681 433 703 436 688 l 497 371 z m 518 1097 l 329 1097 l 76 0 l 278 0 l 314 182 l 533 182 l 569 0 l 771 0 z m 492 1361 l 356 1361 l 197 1186 l 339 1151 l 424 1244 l 507 1153 l 649 1188 z "},"Ä":{"ha":847,"x_min":0,"x_max":0,"o":"m 350 371 l 410 681 b 424 703 411 688 415 703 b 438 681 433 703 436 688 l 497 371 z m 518 1097 l 329 1097 l 76 0 l 278 0 l 314 182 l 533 182 l 569 0 l 771 0 z m 369 1326 l 204 1326 l 204 1167 l 369 1167 z m 642 1326 l 474 1326 l 474 1167 l 642 1167 z "},"À":{"ha":847,"x_min":0,"x_max":0,"o":"m 350 371 l 410 681 b 424 703 411 688 415 703 b 438 681 433 703 436 688 l 497 371 z m 518 1097 l 329 1097 l 76 0 l 278 0 l 314 182 l 533 182 l 569 0 l 771 0 z m 378 1439 l 269 1322 l 482 1151 l 556 1224 z "},"Å":{"ha":847,"x_min":0,"x_max":0,"o":"m 350 371 l 410 681 b 424 703 411 688 415 703 b 438 681 433 703 436 688 l 497 371 z m 479 1317 b 424 1258 479 1286 456 1258 b 368 1317 392 1258 368 1286 b 424 1375 368 1347 392 1375 b 479 1317 456 1375 479 1347 z m 518 1097 l 329 1097 l 76 0 l 278 0 l 314 182 l 533 182 l 569 0 l 771 0 z m 581 1315 b 425 1479 581 1403 514 1479 b 268 1315 335 1479 268 1404 b 425 1153 268 1228 335 1153 b 581 1315 514 1153 581 1229 z "},"Ã":{"ha":847,"x_min":0,"x_max":0,"o":"m 350 371 l 410 681 b 424 703 411 688 415 703 b 438 681 433 703 436 688 l 497 371 z m 518 1097 l 329 1097 l 76 0 l 278 0 l 314 182 l 533 182 l 569 0 l 771 0 z m 549 1324 b 506 1271 549 1294 538 1271 b 336 1324 447 1271 406 1324 b 199 1179 243 1325 200 1279 l 197 1153 l 296 1153 b 340 1204 296 1189 311 1204 b 508 1151 385 1203 444 1151 b 647 1296 603 1151 646 1196 l 649 1324 z "},"Ç":{"ha":847,"x_min":0,"x_max":0,"o":"m 576 275 b 479 189 576 222 540 189 l 368 189 b 271 286 306 189 271 224 l 271 811 b 368 908 271 874 306 908 l 479 908 b 576 819 542 908 576 867 l 771 868 b 521 1097 760 990 660 1097 l 326 1097 b 76 847 188 1097 76 986 l 76 250 b 326 0 76 111 188 0 l 365 0 l 346 -111 b 394 -111 368 -111 394 -111 b 447 -156 431 -111 447 -124 b 397 -200 447 -185 431 -200 b 326 -201 397 -200 350 -201 l 326 -278 l 446 -278 b 579 -164 539 -278 579 -253 b 476 -49 579 -68 539 -49 l 486 0 l 521 0 b 771 226 660 0 758 107 z "},"É":{"ha":847,"x_min":0,"x_max":0,"o":"m 771 189 l 271 189 l 271 454 l 632 454 l 632 643 l 271 643 l 271 908 l 771 908 l 771 1097 l 76 1097 l 76 0 l 771 0 z m 517 1439 l 340 1224 l 413 1151 l 625 1322 z "},"Ê":{"ha":847,"x_min":0,"x_max":0,"o":"m 771 189 l 271 189 l 271 454 l 632 454 l 632 643 l 271 643 l 271 908 l 771 908 l 771 1097 l 76 1097 l 76 0 l 771 0 z m 499 1363 l 363 1363 l 204 1188 l 346 1153 l 431 1246 l 515 1154 l 656 1189 z "},"Ë":{"ha":847,"x_min":0,"x_max":0,"o":"m 771 189 l 271 189 l 271 454 l 632 454 l 632 643 l 271 643 l 271 908 l 771 908 l 771 1097 l 76 1097 l 76 0 l 771 0 z m 372 1326 l 206 1326 l 206 1167 l 372 1167 z m 644 1326 l 476 1326 l 476 1167 l 644 1167 z "},"È":{"ha":847,"x_min":0,"x_max":0,"o":"m 771 189 l 271 189 l 271 454 l 632 454 l 632 643 l 271 643 l 271 908 l 771 908 l 771 1097 l 76 1097 l 76 0 l 771 0 z m 374 1438 l 264 1321 l 476 1150 l 550 1222 z "},"Í":{"ha":347,"x_min":0,"x_max":0,"o":"m 271 1097 l 76 1097 l 76 0 l 271 0 z m 232 1435 l 56 1219 l 129 1147 l 342 1318 z "},"Î":{"ha":347,"x_min":0,"x_max":0,"o":"m 271 1097 l 76 1097 l 76 0 l 271 0 z m 242 1361 l 106 1361 l -53 1186 l 89 1151 l 174 1244 l 257 1153 l 399 1188 z "},"Ï":{"ha":347,"x_min":0,"x_max":0,"o":"m 271 1097 l 76 1097 l 76 0 l 271 0 z m 119 1328 l -46 1328 l -46 1168 l 119 1168 z m 392 1328 l 225 1328 l 225 1168 l 392 1168 z "},"Ì":{"ha":347,"x_min":0,"x_max":0,"o":"m 271 1097 l 76 1097 l 76 0 l 271 0 z m 110 1435 l 1 1318 l 214 1147 l 286 1219 z "},"Ñ":{"ha":847,"x_min":0,"x_max":0,"o":"m 771 1097 l 576 1097 l 576 456 l 260 1097 l 76 1097 l 76 0 l 271 0 l 271 639 l 589 0 l 771 0 z m 553 1333 b 510 1281 553 1304 542 1281 b 340 1333 451 1281 408 1333 b 201 1189 246 1335 204 1289 l 201 1163 l 300 1163 b 344 1214 300 1199 315 1214 b 513 1161 389 1213 449 1161 b 651 1306 607 1161 649 1206 l 651 1333 z "},"Ó":{"ha":847,"x_min":0,"x_max":0,"o":"m 576 286 b 479 189 576 225 542 189 l 368 189 b 271 286 306 189 271 224 l 271 811 b 368 908 271 874 306 908 l 479 908 b 576 811 542 908 576 874 l 576 286 z m 771 847 b 521 1097 771 986 660 1097 l 326 1097 b 76 847 188 1097 76 986 l 76 250 b 326 0 76 110 188 0 l 521 0 b 771 250 660 0 771 111 z m 489 1439 l 313 1224 l 386 1151 l 599 1322 z "},"Ô":{"ha":847,"x_min":0,"x_max":0,"o":"m 576 286 b 479 189 576 225 542 189 l 368 189 b 271 286 306 189 271 224 l 271 811 b 368 908 271 874 306 908 l 479 908 b 576 811 542 908 576 874 l 576 286 z m 771 847 b 521 1097 771 986 660 1097 l 326 1097 b 76 847 188 1097 76 986 l 76 250 b 326 0 76 110 188 0 l 521 0 b 771 250 660 0 771 111 z m 492 1361 l 354 1361 l 197 1186 l 339 1151 l 422 1244 l 507 1153 l 649 1188 z "},"Ö":{"ha":847,"x_min":0,"x_max":0,"o":"m 576 286 b 479 189 576 225 542 189 l 368 189 b 271 286 306 189 271 224 l 271 811 b 368 908 271 874 306 908 l 479 908 b 576 811 542 908 576 874 l 576 286 z m 771 847 b 521 1097 771 986 660 1097 l 326 1097 b 76 847 188 1097 76 986 l 76 250 b 326 0 76 110 188 0 l 521 0 b 771 250 660 0 771 111 z m 372 1322 l 207 1322 l 207 1163 l 372 1163 z m 644 1322 l 476 1322 l 476 1163 l 644 1163 z "},"Ò":{"ha":847,"x_min":0,"x_max":0,"o":"m 576 286 b 479 189 576 225 542 189 l 368 189 b 271 286 306 189 271 224 l 271 811 b 368 908 271 874 306 908 l 479 908 b 576 811 542 908 576 874 l 576 286 z m 771 847 b 521 1097 771 986 660 1097 l 326 1097 b 76 847 188 1097 76 986 l 76 250 b 326 0 76 110 188 0 l 521 0 b 771 250 660 0 771 111 z m 360 1435 l 251 1318 l 464 1147 l 538 1219 z "},"Õ":{"ha":847,"x_min":0,"x_max":0,"o":"m 576 286 b 479 189 576 225 542 189 l 368 189 b 271 286 306 189 271 224 l 271 811 b 368 908 271 874 306 908 l 479 908 b 576 811 542 908 576 874 l 576 286 z m 771 847 b 521 1097 771 986 660 1097 l 326 1097 b 76 847 188 1097 76 986 l 76 250 b 326 0 76 110 188 0 l 521 0 b 771 250 660 0 771 111 z m 549 1325 b 506 1272 547 1296 538 1272 b 336 1325 447 1272 404 1325 b 197 1181 242 1326 200 1281 l 197 1154 l 296 1154 b 340 1206 296 1190 311 1206 b 508 1153 385 1204 443 1153 b 647 1297 603 1153 644 1197 l 647 1325 z "},"Š":{"ha":847,"x_min":0,"x_max":0,"o":"m 771 357 b 589 586 771 472 696 543 l 328 690 b 271 797 281 710 271 735 l 271 811 b 368 908 271 874 306 908 l 479 908 b 576 821 542 908 572 875 l 771 869 b 521 1097 760 988 661 1097 l 326 1097 b 76 847 188 1097 76 986 l 76 765 b 261 514 76 628 167 551 l 514 413 b 576 324 563 393 576 372 l 576 286 b 479 189 576 224 542 189 l 368 189 b 271 279 306 189 274 222 l 76 231 b 326 0 90 103 188 0 l 521 0 b 771 250 660 0 771 111 z m 508 1376 l 425 1283 l 340 1375 l 199 1340 l 357 1167 l 493 1167 l 650 1342 z "},"Ú":{"ha":847,"x_min":0,"x_max":0,"o":"m 771 1097 l 576 1097 l 576 286 b 479 189 576 224 542 189 l 368 189 b 271 286 306 189 271 224 l 271 1097 l 76 1097 l 76 250 b 326 0 76 111 186 0 l 521 0 b 771 250 660 0 771 111 z m 497 1435 l 321 1219 l 394 1147 l 607 1318 z "},"Û":{"ha":847,"x_min":0,"x_max":0,"o":"m 771 1097 l 576 1097 l 576 286 b 479 189 576 224 542 189 l 368 189 b 271 286 306 189 271 224 l 271 1097 l 76 1097 l 76 250 b 326 0 76 111 186 0 l 521 0 b 771 250 660 0 771 111 z m 497 1357 l 361 1357 l 204 1182 l 346 1147 l 429 1240 l 514 1149 l 656 1183 z "},"Ü":{"ha":847,"x_min":0,"x_max":0,"o":"m 771 1097 l 576 1097 l 576 286 b 479 189 576 224 542 189 l 368 189 b 271 286 306 189 271 224 l 271 1097 l 76 1097 l 76 250 b 326 0 76 111 186 0 l 521 0 b 771 250 660 0 771 111 z m 368 1322 l 201 1322 l 201 1163 l 368 1163 z m 640 1322 l 472 1322 l 472 1163 l 640 1163 z "},"Ù":{"ha":847,"x_min":0,"x_max":0,"o":"m 771 1097 l 576 1097 l 576 286 b 479 189 576 224 542 189 l 368 189 b 271 286 306 189 271 224 l 271 1097 l 76 1097 l 76 250 b 326 0 76 111 186 0 l 521 0 b 771 250 660 0 771 111 z m 356 1435 l 247 1318 l 460 1147 l 532 1219 z "},"Ý":{"ha":847,"x_min":0,"x_max":0,"o":"m 771 1097 l 576 1097 l 576 1054 b 558 964 576 1026 571 993 l 424 650 l 289 964 b 271 1054 276 992 271 1026 l 271 1097 l 76 1097 l 76 1032 b 111 883 76 983 86 938 l 326 404 l 326 0 l 521 0 l 521 404 l 736 883 b 771 1031 760 936 771 982 z m 476 1440 l 300 1225 l 374 1151 l 586 1322 z "},"Ÿ":{"ha":847,"x_min":0,"x_max":0,"o":"m 771 1097 l 576 1097 l 576 1054 b 558 964 576 1026 571 993 l 424 650 l 289 964 b 271 1054 276 992 271 1026 l 271 1097 l 76 1097 l 76 1032 b 111 883 76 983 86 938 l 326 404 l 326 0 l 521 0 l 521 404 l 736 883 b 771 1031 760 936 771 982 z m 371 1325 l 206 1325 l 206 1165 l 371 1165 z m 643 1325 l 476 1325 l 476 1165 l 643 1165 z "},"Ž":{"ha":847,"x_min":0,"x_max":0,"o":"m 771 189 l 306 189 l 771 917 l 771 1097 l 76 1099 l 76 910 l 543 910 l 76 181 l 76 0 l 771 0 z m 518 1375 l 435 1283 l 350 1374 l 208 1339 l 367 1167 l 503 1167 l 660 1340 z "},"á":{"ha":692,"x_min":0,"x_max":0,"o":"m 442 244 b 372 175 442 196 421 175 l 306 175 b 236 244 258 175 236 196 l 236 256 b 306 326 236 306 257 326 l 442 326 l 442 244 z m 622 625 b 428 819 622 738 539 819 l 258 819 b 63 638 144 819 63 750 l 63 625 l 233 582 b 304 644 236 622 254 644 l 372 644 b 442 574 419 644 442 622 l 442 503 l 250 503 b 56 307 139 503 56 418 l 56 196 b 250 0 56 83 139 0 l 351 0 b 456 49 396 0 438 21 l 476 0 l 622 0 z m 421 1161 l 244 946 l 317 874 l 529 1044 z "},"â":{"ha":692,"x_min":0,"x_max":0,"o":"m 442 244 b 372 175 442 196 421 175 l 306 175 b 236 244 258 175 236 196 l 236 256 b 306 326 236 306 257 326 l 442 326 l 442 244 z m 622 625 b 428 819 622 738 539 819 l 258 819 b 63 638 144 819 63 750 l 63 625 l 233 582 b 304 644 236 622 254 644 l 372 644 b 442 574 419 644 442 622 l 442 503 l 250 503 b 56 307 139 503 56 418 l 56 196 b 250 0 56 83 139 0 l 351 0 b 456 49 396 0 438 21 l 476 0 l 622 0 z m 410 1083 l 272 1083 l 115 908 l 257 874 l 340 967 l 425 875 l 567 910 z "},"ä":{"ha":692,"x_min":0,"x_max":0,"o":"m 442 244 b 372 175 442 196 421 175 l 306 175 b 236 244 258 175 236 196 l 236 256 b 306 326 236 306 257 326 l 442 326 l 442 244 z m 622 625 b 428 819 622 738 539 819 l 258 819 b 63 638 144 819 63 750 l 63 625 l 233 582 b 304 644 236 622 254 644 l 372 644 b 442 574 419 644 442 622 l 442 503 l 250 503 b 56 307 139 503 56 418 l 56 196 b 250 0 56 83 139 0 l 351 0 b 456 49 396 0 438 21 l 476 0 l 622 0 z m 297 1047 l 131 1047 l 131 889 l 297 889 z m 569 1047 l 401 1047 l 401 889 l 569 889 z "},"à":{"ha":692,"x_min":0,"x_max":0,"o":"m 442 244 b 372 175 442 196 421 175 l 306 175 b 236 244 258 175 236 196 l 236 256 b 306 326 236 306 257 326 l 442 326 l 442 244 z m 622 625 b 428 819 622 738 539 819 l 258 819 b 63 638 144 819 63 750 l 63 625 l 233 582 b 304 644 236 622 254 644 l 372 644 b 442 574 419 644 442 622 l 442 503 l 250 503 b 56 307 139 503 56 418 l 56 196 b 250 0 56 83 139 0 l 351 0 b 456 49 396 0 438 21 l 476 0 l 622 0 z m 288 1161 l 178 1044 l 390 874 l 464 946 z "},"å":{"ha":692,"x_min":0,"x_max":0,"o":"m 442 244 b 372 175 442 196 421 175 l 306 175 b 236 244 258 175 236 196 l 236 256 b 306 326 236 306 257 326 l 442 326 l 442 244 z m 407 1039 b 351 981 407 1007 383 981 b 296 1039 319 981 296 1007 b 351 1096 296 1069 319 1096 b 407 1039 383 1096 407 1069 z m 622 625 b 428 819 622 738 539 819 l 258 819 b 63 638 144 819 63 750 l 63 625 l 233 582 b 304 644 236 622 254 644 l 372 644 b 442 574 419 644 442 622 l 442 503 l 250 503 b 56 307 139 503 56 418 l 56 196 b 250 0 56 83 139 0 l 351 0 b 456 49 396 0 438 21 l 476 0 l 622 0 z m 508 1038 b 353 1201 508 1125 442 1201 b 196 1038 263 1201 196 1125 b 353 875 196 950 263 875 b 508 1038 442 875 508 950 z "},"ã":{"ha":692,"x_min":0,"x_max":0,"o":"m 442 244 b 372 175 442 196 421 175 l 306 175 b 236 244 258 175 236 196 l 236 256 b 306 326 236 306 257 326 l 442 326 l 442 244 z m 622 625 b 428 819 622 738 539 819 l 258 819 b 63 638 144 819 63 750 l 63 625 l 233 582 b 304 644 236 622 254 644 l 372 644 b 442 574 419 644 442 622 l 442 503 l 250 503 b 56 307 139 503 56 418 l 56 196 b 250 0 56 83 139 0 l 351 0 b 456 49 396 0 438 21 l 476 0 l 622 0 z m 472 1060 b 431 1007 472 1029 461 1007 b 260 1060 372 1007 329 1060 b 122 915 167 1060 125 1014 l 121 889 l 219 889 b 265 940 219 925 235 940 b 433 886 308 939 368 886 b 571 1032 526 886 569 932 l 572 1060 z "},"ç":{"ha":715,"x_min":0,"x_max":0,"o":"m 465 238 b 396 175 463 194 442 175 l 319 175 b 250 246 271 175 250 197 l 250 574 b 319 644 250 622 271 644 l 396 644 b 465 582 442 644 463 625 l 646 628 b 453 819 644 739 564 819 l 263 819 b 69 625 151 819 69 738 l 69 194 b 263 0 69 82 151 0 l 282 0 l 263 -111 b 311 -111 285 -111 311 -111 b 364 -156 347 -111 364 -124 b 314 -200 364 -185 347 -200 b 243 -201 314 -200 267 -201 l 243 -278 l 363 -278 b 496 -164 456 -278 496 -253 b 393 -49 496 -68 456 -49 l 403 0 l 453 0 b 646 192 563 0 644 81 z "},"é":{"ha":706,"x_min":0,"x_max":0,"o":"m 456 493 l 250 493 l 250 575 b 321 644 250 624 271 644 l 386 644 b 456 575 435 644 457 624 z m 636 624 b 442 819 636 736 554 819 l 263 819 b 69 625 151 819 69 736 l 69 194 b 265 0 69 82 153 0 l 435 0 b 629 182 547 0 629 69 l 629 194 l 458 238 b 389 175 456 197 438 175 l 321 175 b 250 246 274 175 250 197 l 250 317 l 636 317 z m 431 1161 l 253 946 l 326 874 l 539 1044 z "},"ê":{"ha":706,"x_min":0,"x_max":0,"o":"m 456 493 l 250 493 l 250 575 b 321 644 250 624 271 644 l 386 644 b 456 575 435 644 457 624 z m 636 624 b 442 819 636 736 554 819 l 263 819 b 69 625 151 819 69 736 l 69 194 b 265 0 69 82 153 0 l 435 0 b 629 182 547 0 629 69 l 629 194 l 458 238 b 389 175 456 197 438 175 l 321 175 b 250 246 274 175 250 197 l 250 317 l 636 317 z m 425 1083 l 289 1083 l 131 908 l 272 874 l 357 967 l 440 875 l 582 910 z "},"ë":{"ha":706,"x_min":0,"x_max":0,"o":"m 456 493 l 250 493 l 250 575 b 321 644 250 624 271 644 l 386 644 b 456 575 435 644 457 624 z m 636 624 b 442 819 636 736 554 819 l 263 819 b 69 625 151 819 69 736 l 69 194 b 265 0 69 82 153 0 l 435 0 b 629 182 547 0 629 69 l 629 194 l 458 238 b 389 175 456 197 438 175 l 321 175 b 250 246 274 175 250 197 l 250 317 l 636 317 z m 304 1044 l 138 1044 l 138 886 l 304 886 z m 576 1044 l 408 1044 l 408 886 l 576 886 z "},"è":{"ha":706,"x_min":0,"x_max":0,"o":"m 456 493 l 250 493 l 250 575 b 321 644 250 624 271 644 l 386 644 b 456 575 435 644 457 624 z m 636 624 b 442 819 636 736 554 819 l 263 819 b 69 625 151 819 69 736 l 69 194 b 265 0 69 82 153 0 l 435 0 b 629 182 547 0 629 69 l 629 194 l 458 238 b 389 175 456 197 438 175 l 321 175 b 250 246 274 175 250 197 l 250 317 l 636 317 z m 310 1161 l 200 1044 l 413 874 l 486 946 z "},"í":{"ha":319,"x_min":0,"x_max":0,"o":"m 250 819 l 69 819 l 69 0 l 250 0 z m 200 1161 l 22 946 l 96 874 l 308 1044 z "},"î":{"ha":319,"x_min":0,"x_max":0,"o":"m 250 819 l 69 819 l 69 0 l 250 0 z m 224 1083 l 96 1083 l -53 907 l 81 872 l 160 965 l 238 874 l 371 908 z "},"ï":{"ha":319,"x_min":0,"x_max":0,"o":"m 250 819 l 69 819 l 69 0 l 250 0 z m 107 1047 l -58 1047 l -58 889 l 107 889 z m 379 1047 l 211 1047 l 211 889 l 379 889 z "},"ì":{"ha":319,"x_min":0,"x_max":0,"o":"m 250 819 l 69 819 l 69 0 l 250 0 z m 117 1161 l 7 1044 l 219 874 l 293 946 z "},"ñ":{"ha":699,"x_min":0,"x_max":0,"o":"m 629 624 b 436 819 629 736 549 819 l 368 819 b 250 769 325 819 272 797 l 250 819 l 69 819 l 69 0 l 250 0 l 250 574 b 319 644 250 622 271 644 l 379 644 b 449 574 428 644 449 622 l 449 0 l 629 0 z m 485 1060 b 442 1007 485 1029 474 1007 b 272 1060 383 1007 340 1060 b 133 915 179 1060 136 1014 l 133 889 l 232 889 b 276 940 232 925 247 940 b 444 886 321 939 381 886 b 583 1032 539 886 581 932 l 585 1060 z "},"ó":{"ha":715,"x_min":0,"x_max":0,"o":"m 465 246 b 396 175 465 197 444 175 l 319 175 b 250 246 271 175 250 197 l 250 574 b 319 644 250 622 271 644 l 396 644 b 465 574 444 644 465 622 l 465 246 z m 646 624 b 451 819 646 736 563 819 l 264 819 b 69 625 153 819 69 738 l 69 194 b 264 0 69 82 153 0 l 451 0 b 646 194 563 0 646 82 z m 406 1161 l 229 946 l 303 874 l 515 1044 z "},"ô":{"ha":715,"x_min":0,"x_max":0,"o":"m 465 246 b 396 175 465 197 444 175 l 319 175 b 250 246 271 175 250 197 l 250 574 b 319 644 250 622 271 644 l 396 644 b 465 574 444 644 465 622 l 465 246 z m 646 624 b 451 819 646 736 563 819 l 264 819 b 69 625 153 819 69 738 l 69 194 b 264 0 69 82 153 0 l 451 0 b 646 194 563 0 646 82 z m 425 1083 l 289 1083 l 132 908 l 274 874 l 357 967 l 442 875 l 583 910 z "},"ö":{"ha":715,"x_min":0,"x_max":0,"o":"m 465 246 b 396 175 465 197 444 175 l 319 175 b 250 246 271 175 250 197 l 250 574 b 319 644 250 622 271 644 l 396 644 b 465 574 444 644 465 622 l 465 246 z m 646 624 b 451 819 646 736 563 819 l 264 819 b 69 625 153 819 69 738 l 69 194 b 264 0 69 82 153 0 l 451 0 b 646 194 563 0 646 82 z m 304 1047 l 139 1047 l 139 889 l 304 889 z m 576 1047 l 408 1047 l 408 889 l 576 889 z "},"ò":{"ha":715,"x_min":0,"x_max":0,"o":"m 465 246 b 396 175 465 197 444 175 l 319 175 b 250 246 271 175 250 197 l 250 574 b 319 644 250 622 271 644 l 396 644 b 465 574 444 644 465 622 l 465 246 z m 646 624 b 451 819 646 736 563 819 l 264 819 b 69 625 153 819 69 738 l 69 194 b 264 0 69 82 153 0 l 451 0 b 646 194 563 0 646 82 z m 310 1161 l 201 1044 l 414 874 l 486 946 z "},"õ":{"ha":715,"x_min":0,"x_max":0,"o":"m 465 246 b 396 175 465 197 444 175 l 319 175 b 250 246 271 175 250 197 l 250 574 b 319 644 250 622 271 644 l 396 644 b 465 574 444 644 465 622 l 465 246 z m 646 624 b 451 819 646 736 563 819 l 264 819 b 69 625 153 819 69 738 l 69 194 b 264 0 69 82 153 0 l 451 0 b 646 194 563 0 646 82 z m 482 1060 b 439 1007 481 1029 471 1007 b 269 1060 381 1007 338 1060 b 131 915 175 1060 133 1014 l 131 889 l 229 889 b 274 940 229 925 244 940 b 442 886 318 939 376 886 b 581 1032 536 886 578 932 l 581 1060 z "},"š":{"ha":715,"x_min":0,"x_max":0,"o":"m 646 249 b 504 449 646 360 578 422 l 289 528 b 250 579 258 539 250 554 l 250 588 b 319 644 250 622 271 644 l 396 644 b 465 582 442 644 463 625 l 646 628 b 453 819 644 739 564 819 l 263 819 b 69 625 151 819 69 736 l 69 569 b 217 368 69 461 149 393 l 421 293 b 465 244 454 281 465 265 l 465 239 b 396 175 465 197 444 175 l 321 175 b 250 238 274 175 253 194 l 69 192 b 264 0 71 81 153 0 l 453 0 b 646 194 564 0 646 82 z m 442 1099 l 357 1006 l 274 1097 l 132 1063 l 289 889 l 425 889 l 583 1064 z "},"ú":{"ha":699,"x_min":0,"x_max":0,"o":"m 629 819 l 449 819 l 449 244 b 379 175 449 196 428 175 l 319 175 b 250 244 271 175 250 196 l 250 819 l 69 819 l 69 196 b 263 -1 69 83 150 -1 l 331 -1 b 449 50 374 -1 426 22 l 449 0 l 629 0 z m 394 1161 l 218 946 l 290 874 l 503 1044 z "},"û":{"ha":699,"x_min":0,"x_max":0,"o":"m 629 819 l 449 819 l 449 244 b 379 175 449 196 428 175 l 319 175 b 250 244 271 175 250 196 l 250 819 l 69 819 l 69 196 b 263 -1 69 83 150 -1 l 331 -1 b 449 50 374 -1 426 22 l 449 0 l 629 0 z m 421 1083 l 285 1083 l 126 908 l 268 874 l 353 967 l 436 875 l 578 910 z "},"ü":{"ha":699,"x_min":0,"x_max":0,"o":"m 629 819 l 449 819 l 449 244 b 379 175 449 196 428 175 l 319 175 b 250 244 271 175 250 196 l 250 819 l 69 819 l 69 196 b 263 -1 69 83 150 -1 l 331 -1 b 449 50 374 -1 426 22 l 449 0 l 629 0 z m 300 1047 l 133 1047 l 133 889 l 300 889 z m 571 1047 l 404 1047 l 404 889 l 571 889 z "},"ù":{"ha":699,"x_min":0,"x_max":0,"o":"m 629 819 l 449 819 l 449 244 b 379 175 449 196 428 175 l 319 175 b 250 244 271 175 250 196 l 250 819 l 69 819 l 69 196 b 263 -1 69 83 150 -1 l 331 -1 b 449 50 374 -1 426 22 l 449 0 l 629 0 z m 311 1161 l 203 1044 l 415 874 l 488 946 z "},"ý":{"ha":694,"x_min":0,"x_max":0,"o":"m 482 819 l 358 346 b 346 329 357 340 354 329 b 333 346 339 329 335 340 l 213 819 l 28 819 l 258 0 l 250 -31 b 157 -103 236 -79 206 -103 l 101 -103 l 101 -278 l 176 -278 b 408 -99 279 -278 374 -225 l 667 819 z m 404 1161 l 226 946 l 300 874 l 513 1044 z "},"ÿ":{"ha":694,"x_min":0,"x_max":0,"o":"m 482 819 l 358 346 b 346 329 357 340 354 329 b 333 346 339 329 335 340 l 213 819 l 28 819 l 258 0 l 250 -31 b 157 -103 236 -79 206 -103 l 101 -103 l 101 -278 l 176 -278 b 408 -99 279 -278 374 -225 l 667 819 z m 293 1049 l 128 1049 l 128 890 l 293 890 z m 565 1049 l 397 1049 l 397 890 l 565 890 z "},"ž":{"ha":711,"x_min":0,"x_max":0,"o":"m 642 175 l 300 175 l 642 681 l 642 819 l 69 819 l 69 644 l 413 644 l 69 139 l 69 0 l 642 0 z m 447 1099 l 363 1006 l 279 1097 l 138 1063 l 294 889 l 431 889 l 589 1064 z "},"⅓":{"ha":1108,"x_min":0,"x_max":0,"o":"m 219 1097 l 69 1097 l 69 406 l 219 406 z m 515 1099 l 183 0 l 343 0 l 675 1099 z m 1039 243 b 996 347 1039 289 1024 322 b 1039 449 1022 369 1039 407 l 1039 525 b 876 692 1039 617 967 692 l 763 692 b 600 529 675 692 610 622 l 746 490 b 788 546 746 528 758 546 l 853 546 b 894 503 881 546 894 532 l 894 461 b 853 418 894 432 881 418 l 776 418 l 776 274 l 853 274 b 894 231 881 274 894 260 l 894 188 b 853 146 894 160 881 146 l 788 146 b 746 200 757 146 746 161 l 600 163 b 754 0 604 85 664 0 l 876 0 b 1039 167 968 0 1039 74 z "},"⅔":{"ha":1386,"x_min":0,"x_max":0,"o":"m 507 551 l 282 551 b 296 569 281 554 285 560 l 442 706 b 507 850 490 750 507 796 l 507 931 b 344 1097 507 1024 435 1097 l 232 1097 b 69 933 142 1097 69 1021 l 214 896 b 256 951 214 939 229 951 l 321 951 b 363 910 349 951 363 938 l 363 868 b 333 807 363 843 356 828 l 144 631 b 69 471 99 588 69 526 l 69 406 l 507 406 z m 794 1099 l 463 0 l 622 0 l 953 1099 z m 1317 243 b 1275 347 1317 289 1301 322 b 1317 449 1300 369 1317 407 l 1317 525 b 1156 692 1317 617 1244 692 l 1042 692 b 878 529 954 692 889 622 l 1024 490 b 1065 546 1024 528 1036 546 l 1131 546 b 1172 503 1158 546 1172 532 l 1172 461 b 1131 418 1172 432 1158 418 l 1054 418 l 1054 274 l 1131 274 b 1172 231 1158 274 1172 260 l 1172 188 b 1131 146 1172 158 1158 146 l 1065 146 b 1024 200 1035 146 1024 161 l 878 163 b 1033 0 883 85 942 0 l 1156 0 b 1317 167 1246 0 1317 74 z "},"\t":{"ha":1389,"x_min":0,"x_max":0,"o":""},"\n":{"ha":1389,"x_min":0,"x_max":0,"o":""},"\r":{"ha":1389,"x_min":0,"x_max":0,"o":""},"\u0010":{"ha":1389,"x_min":0,"x_max":0,"o":""},"\u0011":{"ha":1389,"x_min":0,"x_max":0,"o":""},"\u0012":{"ha":1389,"x_min":0,"x_max":0,"o":""},"\u0013":{"ha":1389,"x_min":0,"x_max":0,"o":""},"\u0014":{"ha":1389,"x_min":0,"x_max":0,"o":""},"\u001e":{"ha":1389,"x_min":0,"x_max":0,"o":""},"\u001f":{"ha":1389,"x_min":0,"x_max":0,"o":""},"":{"ha":1389,"x_min":0,"x_max":0,"o":""},"≠":{"ha":736,"x_min":0,"x_max":0,"o":"m 660 454 l 419 454 l 476 643 l 660 643 l 660 829 l 532 829 l 589 1018 l 429 1018 l 372 829 l 76 829 l 76 643 l 317 643 l 260 454 l 76 454 l 76 265 l 203 265 l 147 79 l 307 79 l 363 265 l 660 265 z "},"∞":{"ha":915,"x_min":0,"x_max":0,"o":"m 378 546 b 286 482 353 510 322 482 b 226 546 253 482 226 506 b 286 613 226 588 251 613 b 378 546 321 613 353 582 z m 688 547 b 629 482 688 507 663 482 b 538 549 593 482 563 511 b 628 613 561 585 590 613 b 688 547 663 613 688 588 z m 839 546 b 639 751 839 668 756 751 b 456 657 563 751 503 713 b 276 751 411 711 351 751 b 76 549 164 751 76 668 b 276 342 76 425 158 342 b 458 436 351 342 413 383 b 640 342 504 381 564 342 b 839 546 756 342 839 425 z "},"≤":{"ha":738,"x_min":0,"x_max":0,"o":"m 660 294 l 76 294 l 76 106 l 660 106 z m 661 543 l 331 665 l 661 788 l 661 996 l 78 751 l 78 581 l 661 336 z "},"≥":{"ha":738,"x_min":0,"x_max":0,"o":"m 661 294 l 78 294 l 78 106 l 661 106 z m 660 751 l 76 996 l 76 788 l 407 665 l 76 543 l 76 336 l 660 581 z "},"∂":{"ha":715,"x_min":0,"x_max":0,"o":"m 465 246 b 396 175 465 197 444 175 l 319 175 b 250 246 271 175 250 197 l 250 574 b 319 644 250 622 271 644 l 396 644 b 465 574 444 644 465 622 l 465 246 z m 646 624 b 600 753 646 674 628 718 l 336 1097 l 121 1097 l 333 819 l 264 819 b 69 625 153 819 69 738 l 69 194 b 264 0 69 82 153 0 l 451 0 b 646 194 563 0 646 82 z "},"∑":{"ha":822,"x_min":0,"x_max":0,"o":"m 746 -87 l 319 -87 l 669 411 l 319 908 l 746 908 l 746 1097 l 76 1097 l 76 908 l 431 411 l 76 -87 l 76 -276 l 746 -276 z "},"∏":{"ha":875,"x_min":0,"x_max":0,"o":"m 806 1097 l 69 1097 l 69 908 l 132 908 l 132 -278 l 326 -278 l 326 908 l 549 908 l 549 -278 l 743 -278 l 743 908 l 806 908 z "},"π":{"ha":742,"x_min":0,"x_max":0,"o":"m 679 819 l 63 819 l 63 644 l 111 644 l 111 0 l 292 0 l 292 644 l 450 644 l 450 0 l 631 0 l 631 644 l 679 644 z "},"∫":{"ha":493,"x_min":0,"x_max":0,"o":"m 483 1342 b 238 1125 358 1342 254 1250 l 78 -8 b -8 -87 71 -57 40 -87 l -76 -87 l -97 -240 l 24 -240 b 254 -37 149 -240 238 -162 l 417 1115 b 501 1189 422 1164 453 1189 l 569 1189 l 590 1342 z "},"Ω":{"ha":847,"x_min":0,"x_max":0,"o":"m 771 189 l 660 189 l 660 194 b 771 444 738 229 771 306 l 771 847 b 521 1097 771 986 660 1097 l 326 1097 b 76 847 188 1097 76 986 l 76 444 b 189 193 76 306 110 229 l 189 189 l 76 189 l 76 0 l 383 0 l 383 228 b 271 364 314 239 271 281 l 271 811 b 368 908 271 872 304 908 l 479 908 b 576 811 542 908 576 875 l 576 364 b 465 229 576 281 535 240 l 465 0 l 771 0 z "},"√":{"ha":700,"x_min":0,"x_max":0,"o":"m 539 1194 l 350 368 l 288 646 l 56 646 l 56 492 l 163 492 l 275 0 l 424 0 l 700 1194 z "},"≈":{"ha":739,"x_min":0,"x_max":0,"o":"m 663 533 b 508 426 621 483 567 426 b 256 533 428 426 347 533 b 76 431 182 533 131 494 l 76 242 b 239 350 119 299 176 350 b 493 242 317 350 393 242 b 663 346 561 242 611 292 z m 663 847 b 508 742 621 799 567 742 b 256 849 425 742 349 849 b 76 746 182 849 131 808 l 76 557 b 239 665 119 613 175 665 b 493 557 317 665 393 557 b 663 661 561 557 611 607 z "},"∆":{"ha":915,"x_min":0,"x_max":0,"o":"m 272 168 l 457 810 l 642 168 z m 839 86 b 829 143 839 103 836 121 l 574 1001 b 457 1099 556 1067 515 1099 b 339 1001 399 1099 358 1067 l 82 139 b 76 96 78 125 76 111 b 171 -1 76 32 108 -1 l 750 -1 b 839 86 810 -1 839 28 z "}," ":{"ha":306,"x_min":0,"x_max":0,"o":""},"◊":{"ha":736,"x_min":0,"x_max":0,"o":"m 372 199 l 218 547 l 372 892 l 514 550 z m 479 1011 b 372 1099 454 1069 419 1099 b 264 1011 325 1099 290 1069 l 61 550 l 264 86 b 372 -1 290 28 325 -1 b 479 88 419 -1 454 28 l 675 553 z "},"€":{"ha":882,"x_min":0,"x_max":0,"o":"m 611 275 b 514 189 611 222 575 189 l 417 189 b 319 286 354 189 319 224 l 319 346 l 528 346 l 528 507 l 319 507 l 319 590 l 528 590 l 528 751 l 319 751 l 319 811 b 417 908 319 874 354 908 l 514 908 b 611 819 576 908 611 867 l 806 868 b 556 1097 794 990 694 1097 l 375 1097 b 125 847 236 1097 125 986 l 125 751 l 56 751 l 56 590 l 125 590 l 125 507 l 56 507 l 56 346 l 125 346 l 125 250 b 375 0 125 111 236 0 l 556 0 b 806 226 694 0 793 107 z "},"":{"ha":1178,"x_min":0,"x_max":0,"o":"m 68 558 l 444 1110 l 35 1110 l 35 0 l 447 0 z m 1143 1110 l 897 1110 l 522 557 l 901 0 l 1143 0 z "},"₹":{"ha":874,"x_min":0,"x_max":0,"o":"m 660 856 b 643 933 657 881 651 911 l 757 933 l 797 1097 l 117 1097 l 76 933 l 368 933 b 461 856 418 933 450 900 l 117 856 l 76 694 l 463 694 b 368 617 453 650 421 617 l 160 617 l 160 454 l 285 454 l 451 0 l 660 0 l 490 457 b 660 694 593 483 657 560 l 757 694 l 797 856 z "},"℅":{"ha":1389,"x_min":0,"x_max":0,"o":"m 1171 197 b 1122 147 1171 165 1154 147 l 1067 147 b 1018 197 1033 147 1018 164 l 1018 501 b 1067 551 1018 535 1033 551 l 1122 551 b 1171 501 1154 551 1171 535 l 1171 197 z m 382 600 b 326 547 381 563 364 547 l 267 547 b 213 607 229 547 213 565 l 213 889 b 267 950 213 932 229 950 l 326 950 b 382 897 364 950 381 933 l 525 936 b 372 1100 524 1032 460 1100 l 222 1100 b 69 933 135 1100 69 1031 l 69 563 b 222 396 69 467 135 396 l 372 396 b 525 561 460 396 524 465 z m 781 1099 l 449 0 l 608 0 l 940 1099 z m 1319 525 b 1149 700 1319 622 1244 700 l 1040 700 b 868 525 944 700 868 622 l 868 174 b 1040 -1 868 76 944 -1 l 1149 -1 b 1319 174 1244 -1 1319 76 z "},"№":{"ha":1479,"x_min":0,"x_max":0,"o":"m 1222 579 b 1151 508 1222 531 1201 508 l 1104 508 b 1035 579 1056 508 1035 531 l 1035 851 b 1104 922 1035 901 1056 922 l 1151 922 b 1222 851 1201 922 1222 901 l 1222 579 z m 729 1097 l 535 1097 l 535 479 l 260 1097 l 76 1097 l 76 0 l 271 0 l 271 615 l 547 0 l 729 0 z m 1375 249 l 882 249 l 882 75 l 1375 75 z m 1403 901 b 1207 1097 1403 1014 1319 1097 l 1049 1097 b 854 903 938 1097 854 1015 l 854 528 b 1049 333 854 415 938 333 l 1207 333 b 1403 528 1319 333 1403 417 z "},"Ć":{"ha":847,"x_min":0,"x_max":0,"o":"m 576 275 b 479 189 576 222 540 189 l 368 189 b 271 286 306 189 271 224 l 271 811 b 368 908 271 874 306 908 l 479 908 b 576 819 542 908 576 867 l 771 868 b 521 1097 760 990 660 1097 l 326 1097 b 76 847 188 1097 76 986 l 76 250 b 326 0 76 111 188 0 l 521 0 b 771 226 660 0 758 107 z m 489 1440 l 311 1225 l 385 1153 l 597 1324 z "},"ć":{"ha":715,"x_min":0,"x_max":0,"o":"m 465 238 b 396 175 463 194 442 175 l 319 175 b 250 246 271 175 250 197 l 250 574 b 319 644 250 622 271 644 l 396 644 b 465 582 442 644 463 625 l 646 628 b 453 819 644 739 564 819 l 263 819 b 69 625 151 819 69 738 l 69 194 b 263 0 69 82 151 0 l 453 0 b 646 192 563 0 644 81 z m 408 1161 l 231 946 l 304 874 l 517 1044 z "},"Ĺ":{"ha":847,"x_min":0,"x_max":0,"o":"m 771 189 l 271 189 l 271 1097 l 76 1097 l 76 0 l 771 0 z m 417 1439 l 239 1224 l 313 1151 l 525 1322 z "},"ĺ":{"ha":319,"x_min":0,"x_max":0,"o":"m 250 1097 l 69 1097 l 69 0 l 250 0 z m 211 1439 l 33 1224 l 107 1151 l 319 1322 z "},"Ń":{"ha":847,"x_min":0,"x_max":0,"o":"m 771 1097 l 576 1097 l 576 456 l 260 1097 l 76 1097 l 76 0 l 271 0 l 271 639 l 589 0 l 771 0 z m 485 1439 l 307 1224 l 381 1151 l 593 1322 z "},"ń":{"ha":699,"x_min":0,"x_max":0,"o":"m 629 624 b 436 819 629 736 549 819 l 368 819 b 250 769 325 819 272 797 l 250 819 l 69 819 l 69 0 l 250 0 l 250 574 b 319 644 250 622 271 644 l 379 644 b 449 574 428 644 449 622 l 449 0 l 629 0 z m 410 1161 l 232 946 l 306 874 l 518 1044 z "},"Ŕ":{"ha":847,"x_min":0,"x_max":0,"o":"m 576 740 b 479 643 576 678 542 643 l 271 643 l 271 908 l 479 908 b 576 811 540 908 576 874 l 576 740 z m 601 457 b 771 706 706 483 771 567 l 771 847 b 521 1097 771 986 660 1097 l 76 1097 l 76 0 l 271 0 l 271 454 l 396 454 l 563 0 l 771 0 z m 481 1439 l 303 1224 l 376 1151 l 589 1322 z "},"ŕ":{"ha":501,"x_min":0,"x_max":0,"o":"m 488 800 b 410 822 469 814 438 822 l 365 822 b 250 747 328 822 272 803 l 250 819 l 69 819 l 69 0 l 250 0 l 250 574 b 319 644 250 622 271 643 l 378 644 b 446 631 417 644 428 642 l 488 800 z m 319 1161 l 142 946 l 215 874 l 428 1044 z "},"Ś":{"ha":847,"x_min":0,"x_max":0,"o":"m 771 357 b 589 586 771 472 696 543 l 328 690 b 271 797 281 710 271 735 l 271 811 b 368 908 271 874 306 908 l 479 908 b 576 821 542 908 572 875 l 771 869 b 521 1097 760 988 661 1097 l 326 1097 b 76 847 188 1097 76 986 l 76 765 b 261 514 76 628 167 551 l 514 413 b 576 324 563 393 576 372 l 576 286 b 479 189 576 224 542 189 l 368 189 b 271 279 306 189 274 222 l 76 231 b 326 0 90 103 188 0 l 521 0 b 771 250 660 0 771 111 z m 479 1439 l 301 1224 l 375 1151 l 588 1322 z "},"ś":{"ha":715,"x_min":0,"x_max":0,"o":"m 646 249 b 504 449 646 360 578 422 l 289 528 b 250 579 258 539 250 554 l 250 588 b 319 644 250 622 271 644 l 396 644 b 465 582 442 644 463 625 l 646 628 b 453 819 644 739 564 819 l 263 819 b 69 625 151 819 69 736 l 69 569 b 217 368 69 461 149 393 l 421 293 b 465 244 454 281 465 265 l 465 239 b 396 175 465 197 444 175 l 321 175 b 250 238 274 175 253 194 l 69 192 b 264 0 71 81 153 0 l 453 0 b 646 194 564 0 646 82 z m 408 1161 l 231 946 l 304 874 l 517 1044 z "},"Ź":{"ha":847,"x_min":0,"x_max":0,"o":"m 771 189 l 306 189 l 771 917 l 771 1097 l 76 1099 l 76 910 l 543 910 l 76 181 l 76 0 l 771 0 z m 494 1435 l 317 1219 l 390 1147 l 603 1318 z "},"ź":{"ha":711,"x_min":0,"x_max":0,"o":"m 642 175 l 300 175 l 642 681 l 642 819 l 69 819 l 69 644 l 413 644 l 69 139 l 69 0 l 642 0 z m 429 1161 l 251 946 l 325 874 l 538 1044 z "},"Ẃ":{"ha":847,"x_min":0,"x_max":0,"o":"m 576 1097 l 546 563 b 538 547 546 557 544 547 b 525 563 531 547 526 557 l 440 881 b 425 896 439 888 433 896 b 410 881 417 896 411 888 l 324 563 b 311 547 322 557 318 547 b 303 563 304 547 303 557 l 272 1097 l 76 1097 l 139 0 l 321 0 l 411 329 b 425 344 413 336 417 344 b 439 329 433 344 438 336 l 528 0 l 711 0 l 772 1097 z m 479 1435 l 301 1219 l 375 1147 l 588 1318 z "},"ẃ":{"ha":799,"x_min":0,"x_max":0,"o":"m 586 819 l 526 401 b 514 385 526 396 522 385 b 501 401 507 385 503 396 l 415 663 b 400 679 411 676 406 679 b 385 663 394 679 389 676 l 297 401 b 285 385 296 396 293 385 b 272 401 278 385 274 396 l 213 819 l 28 819 l 161 0 l 313 0 l 388 253 b 400 268 392 265 393 268 b 413 253 406 268 408 265 l 488 0 l 639 0 l 771 819 z m 449 1161 l 271 946 l 344 874 l 557 1044 z "},"Ǽ":{"ha":1097,"x_min":0,"x_max":0,"o":"m 350 371 l 410 681 b 424 703 411 688 415 703 b 438 681 433 703 436 688 l 497 371 z m 1021 189 l 728 189 l 667 454 l 882 454 l 882 643 l 622 643 l 561 908 l 1021 908 l 1021 1097 l 329 1097 l 76 0 l 278 0 l 314 182 l 533 182 l 569 0 l 1021 0 z m 618 1439 l 440 1224 l 514 1151 l 726 1322 z "},"ǽ":{"ha":1076,"x_min":0,"x_max":0,"o":"m 440 228 b 372 175 436 192 414 175 l 306 175 b 236 244 258 175 236 196 l 236 256 b 306 326 236 306 257 326 l 440 326 l 440 228 z m 826 493 l 622 493 l 622 592 b 692 644 626 628 649 644 l 757 644 b 826 575 806 644 828 624 z m 1007 624 b 813 819 1007 736 925 819 l 640 819 b 532 778 603 819 554 806 b 421 819 508 806 460 819 l 258 819 b 63 638 144 819 63 750 l 63 625 l 233 582 b 304 644 236 622 254 644 l 372 644 b 440 593 413 644 435 628 l 440 503 l 250 503 b 56 307 139 503 56 418 l 56 196 b 250 0 56 83 139 0 l 388 0 b 519 51 429 0 497 21 b 653 0 540 21 596 0 l 806 0 b 1000 182 919 0 1000 69 l 1000 194 l 829 238 b 760 175 826 197 810 175 l 692 175 b 622 229 650 175 626 192 l 622 317 l 1007 317 z m 599 1163 l 421 947 l 494 875 l 707 1046 z "},"Ǿ":{"ha":847,"x_min":0,"x_max":0,"o":"m 271 310 l 271 811 b 368 908 271 874 306 908 l 453 908 z m 576 286 b 479 189 576 225 542 189 l 394 189 l 576 790 z m 771 847 b 657 1057 771 936 726 1013 l 699 1194 l 539 1194 l 510 1097 l 326 1097 b 76 847 188 1097 76 986 l 76 250 b 189 40 76 161 121 85 l 147 -97 l 307 -97 l 336 0 l 521 0 b 771 250 660 0 771 111 z m 479 1435 l 301 1219 l 375 1147 l 588 1318 z "},"ǿ":{"ha":715,"x_min":0,"x_max":0,"o":"m 465 246 b 396 175 465 197 444 175 l 356 175 l 465 538 l 465 246 z m 250 283 l 250 574 b 319 644 250 622 271 644 l 360 644 z m 646 624 b 544 797 646 701 606 765 l 581 917 l 443 917 l 413 819 l 264 819 b 69 625 153 819 69 738 l 69 194 b 171 22 69 117 110 54 l 135 -97 l 272 -97 l 301 0 l 451 0 b 646 194 563 0 646 82 z m 401 1161 l 224 946 l 297 874 l 510 1044 z "},"Ǻ":{"ha":847,"x_min":0,"x_max":0,"o":"m 350 371 l 410 681 b 424 703 411 688 415 703 b 438 681 433 703 436 688 l 497 371 z m 479 1222 b 424 1164 479 1192 456 1164 b 368 1222 392 1164 368 1192 b 424 1281 368 1253 392 1281 b 479 1222 456 1281 479 1253 z m 519 1092 b 581 1221 557 1122 581 1169 b 425 1385 581 1308 514 1385 b 268 1221 335 1385 268 1310 b 328 1093 268 1169 292 1122 l 76 0 l 278 0 l 314 182 l 533 182 l 569 0 l 771 0 z m 471 1701 l 294 1486 l 368 1414 l 581 1585 z "},"ǻ":{"ha":678,"x_min":0,"x_max":0,"o":"m 442 244 b 372 175 442 196 421 175 l 306 175 b 236 244 258 175 236 196 l 236 256 b 306 326 236 306 257 326 l 442 326 l 442 244 z m 407 1039 b 351 981 407 1007 383 981 b 296 1039 319 981 296 1007 b 351 1096 296 1069 319 1096 b 407 1039 383 1096 407 1069 z m 622 625 b 428 819 622 738 539 819 l 258 819 b 63 638 144 819 63 750 l 63 625 l 233 582 b 304 644 236 622 254 644 l 372 644 b 442 574 419 644 442 622 l 442 503 l 250 503 b 56 307 139 503 56 418 l 56 196 b 250 0 56 83 139 0 l 351 0 b 456 49 396 0 438 21 l 476 0 l 622 0 z m 508 1038 b 353 1201 508 1125 442 1201 b 196 1038 263 1201 196 1125 b 353 875 196 950 263 875 b 508 1038 442 875 508 950 z m 399 1518 l 221 1303 l 294 1231 l 507 1401 z "},"Č":{"ha":847,"x_min":0,"x_max":0,"o":"m 576 275 b 479 189 576 222 540 189 l 368 189 b 271 286 306 189 271 224 l 271 811 b 368 908 271 874 306 908 l 479 908 b 576 819 542 908 576 867 l 771 868 b 521 1097 760 990 660 1097 l 326 1097 b 76 847 188 1097 76 986 l 76 250 b 326 0 76 111 188 0 l 521 0 b 771 226 660 0 758 107 z m 511 1375 l 428 1282 l 343 1374 l 201 1339 l 358 1165 l 494 1165 l 653 1340 z "},"č":{"ha":715,"x_min":0,"x_max":0,"o":"m 465 238 b 396 175 463 194 442 175 l 319 175 b 250 246 271 175 250 197 l 250 574 b 319 644 250 622 271 644 l 396 644 b 465 582 442 644 463 625 l 646 628 b 453 819 644 739 564 819 l 263 819 b 69 625 151 819 69 738 l 69 194 b 263 0 69 82 151 0 l 453 0 b 646 192 563 0 644 81 z m 447 1099 l 363 1006 l 279 1097 l 138 1063 l 294 889 l 431 889 l 589 1064 z "},"Ě":{"ha":847,"x_min":0,"x_max":0,"o":"m 771 189 l 271 189 l 271 454 l 632 454 l 632 643 l 271 643 l 271 908 l 771 908 l 771 1097 l 76 1097 l 76 0 l 771 0 z m 517 1376 l 433 1283 l 349 1375 l 207 1340 l 364 1167 l 500 1167 l 658 1342 z "},"ě":{"ha":706,"x_min":0,"x_max":0,"o":"m 456 493 l 250 493 l 250 575 b 321 644 250 624 271 644 l 386 644 b 456 575 435 644 457 624 z m 636 624 b 442 819 636 736 554 819 l 263 819 b 69 625 151 819 69 736 l 69 194 b 265 0 69 82 153 0 l 435 0 b 629 182 547 0 629 69 l 629 194 l 458 238 b 389 175 456 197 438 175 l 321 175 b 250 246 274 175 250 197 l 250 317 l 636 317 z m 443 1099 l 358 1006 l 275 1097 l 133 1063 l 290 889 l 426 889 l 585 1064 z "},"Ň":{"ha":847,"x_min":0,"x_max":0,"o":"m 771 1097 l 576 1097 l 576 456 l 260 1097 l 76 1097 l 76 0 l 271 0 l 271 639 l 589 0 l 771 0 z m 510 1375 l 426 1282 l 342 1374 l 200 1339 l 357 1165 l 493 1165 l 651 1340 z "},"ň":{"ha":699,"x_min":0,"x_max":0,"o":"m 629 624 b 436 819 629 736 549 819 l 368 819 b 250 769 325 819 272 797 l 250 819 l 69 819 l 69 0 l 250 0 l 250 574 b 319 644 250 622 271 644 l 379 644 b 449 574 428 644 449 622 l 449 0 l 629 0 z m 442 1099 l 357 1006 l 274 1097 l 132 1063 l 289 889 l 425 889 l 583 1064 z "},"Ř":{"ha":847,"x_min":0,"x_max":0,"o":"m 576 740 b 479 643 576 678 542 643 l 271 643 l 271 908 l 479 908 b 576 811 540 908 576 874 l 576 740 z m 601 457 b 771 706 706 483 771 567 l 771 847 b 521 1097 771 986 660 1097 l 76 1097 l 76 0 l 271 0 l 271 454 l 396 454 l 563 0 l 771 0 z m 504 1375 l 421 1282 l 336 1374 l 194 1339 l 351 1165 l 488 1165 l 646 1340 z "},"ř":{"ha":501,"x_min":0,"x_max":0,"o":"m 488 800 b 410 822 469 814 438 822 l 365 822 b 250 747 328 822 272 803 l 250 819 l 69 819 l 69 0 l 250 0 l 250 574 b 319 644 250 622 271 643 l 378 644 b 446 631 417 644 428 642 l 488 800 z m 364 1099 l 279 1006 l 196 1097 l 54 1063 l 211 889 l 347 889 l 506 1064 z "},"Ť":{"ha":847,"x_min":0,"x_max":0,"o":"m 771 1097 l 76 1097 l 76 908 l 326 908 l 326 0 l 521 0 l 521 908 l 771 908 z m 508 1375 l 425 1282 l 340 1374 l 199 1339 l 356 1165 l 492 1165 l 650 1340 z "},"ť":{"ha":585,"x_min":0,"x_max":0,"o":"m 463 175 l 340 175 b 271 244 292 175 271 196 l 271 638 l 449 638 l 449 813 l 271 813 l 271 1026 l 90 981 l 90 813 l 21 813 l 21 638 l 90 638 l 90 196 b 285 0 90 83 174 0 l 463 0 z m 481 1225 l 417 946 l 504 917 l 626 1174 z "},"Ď":{"ha":847,"x_min":0,"x_max":0,"o":"m 576 286 b 479 189 576 222 542 189 l 326 189 l 326 908 l 479 908 b 576 811 542 908 576 874 l 576 286 z m 771 847 b 521 1097 771 986 660 1097 l 76 1097 l 76 908 l 132 908 l 132 189 l 76 189 l 76 0 l 521 0 b 771 250 660 0 771 111 z m 497 1375 l 414 1282 l 329 1374 l 188 1339 l 344 1165 l 481 1165 l 639 1340 z "},"ď":{"ha":949,"x_min":0,"x_max":0,"o":"m 476 246 b 407 175 476 197 456 175 l 319 175 b 250 246 271 175 250 197 l 250 574 b 319 644 250 622 271 644 l 407 644 b 476 574 456 644 476 622 l 476 246 z m 657 1097 l 476 1097 l 476 769 b 358 819 449 804 407 819 l 263 819 b 69 625 151 819 69 738 l 69 194 b 263 0 69 82 151 0 l 375 0 b 492 49 428 0 467 17 l 513 0 l 657 0 z m 788 1097 l 717 788 l 813 754 l 949 1040 z "},"Ģ":{"ha":847,"x_min":0,"x_max":0,"o":"m 374 -61 l 303 -371 l 400 -404 l 536 -118 z m 771 579 l 438 579 l 438 390 l 576 390 l 576 286 b 479 189 576 224 542 189 l 368 189 b 271 286 306 189 271 224 l 271 811 b 368 908 271 874 306 908 l 479 908 b 576 824 542 908 576 868 l 771 872 b 521 1097 753 997 660 1097 l 326 1097 b 76 847 188 1097 76 986 l 76 250 b 326 0 76 111 188 0 l 521 0 b 771 250 660 0 771 111 z "},"ģ":{"ha":726,"x_min":0,"x_max":0,"o":"m 476 285 b 407 215 476 236 456 215 l 319 215 b 250 285 271 215 250 236 l 250 574 b 319 644 250 622 271 644 l 407 644 b 476 574 456 644 476 622 l 476 285 z m 657 819 l 511 819 l 490 774 b 372 819 468 800 421 819 l 263 819 b 69 626 151 819 69 738 l 69 233 b 263 39 69 121 150 39 l 358 39 b 476 89 401 39 454 61 l 476 -32 b 407 -103 476 -81 454 -103 l 332 -103 b 261 -40 282 -103 264 -81 l 90 -83 l 90 -96 b 285 -278 90 -208 172 -278 l 463 -278 b 657 -85 575 -278 657 -197 z m 415 1222 l 279 936 l 442 879 l 513 1188 z "},"Ķ":{"ha":847,"x_min":0,"x_max":0,"o":"m 360 -61 l 289 -371 l 386 -404 l 522 -118 z m 771 74 b 733 199 771 118 764 147 l 492 610 l 711 882 b 771 1038 756 938 771 983 l 771 1097 l 576 1097 l 576 1060 b 542 965 576 1021 571 1001 l 271 628 l 271 1097 l 76 1097 l 76 0 l 271 0 l 271 347 l 357 457 l 556 119 b 576 40 571 94 576 67 l 576 0 l 771 0 z "},"ķ":{"ha":726,"x_min":0,"x_max":0,"o":"m 297 -61 l 226 -371 l 324 -404 l 460 -118 z m 657 51 b 624 149 657 85 649 108 l 429 467 l 606 657 b 657 774 643 699 657 733 l 657 819 l 474 819 l 474 792 b 442 725 474 763 468 751 l 250 517 l 250 1097 l 69 1097 l 69 0 l 250 0 l 250 294 l 296 347 l 456 90 b 474 31 468 71 474 51 l 474 -1 l 657 0 z "},"Ļ":{"ha":847,"x_min":0,"x_max":0,"o":"m 353 -61 l 282 -371 l 379 -404 l 515 -118 z m 771 189 l 271 189 l 271 1097 l 76 1097 l 76 0 l 771 0 z "},"ļ":{"ha":319,"x_min":0,"x_max":0,"o":"m 104 -61 l 33 -371 l 131 -404 l 267 -118 z m 250 1097 l 69 1097 l 69 0 l 250 0 z "},"Ņ":{"ha":847,"x_min":0,"x_max":0,"o":"m 361 -61 l 290 -371 l 388 -404 l 524 -118 z m 771 1097 l 576 1097 l 576 456 l 260 1097 l 76 1097 l 76 0 l 271 0 l 271 639 l 589 0 l 771 0 z "},"ņ":{"ha":699,"x_min":0,"x_max":0,"o":"m 283 -61 l 213 -371 l 310 -404 l 446 -118 z m 629 624 b 436 819 629 736 549 819 l 368 819 b 250 769 325 819 272 797 l 250 819 l 69 819 l 69 0 l 250 0 l 250 574 b 319 644 250 622 271 644 l 379 644 b 449 574 428 644 449 622 l 449 0 l 629 0 z "},"Ŗ":{"ha":847,"x_min":0,"x_max":0,"o":"m 576 740 b 479 643 576 678 542 643 l 271 643 l 271 908 l 479 908 b 576 811 540 908 576 874 l 576 740 z m 360 -61 l 289 -371 l 386 -404 l 522 -118 z m 601 457 b 771 706 706 483 771 567 l 771 847 b 521 1097 771 986 660 1097 l 76 1097 l 76 0 l 271 0 l 271 454 l 396 454 l 563 0 l 771 0 z "},"ŗ":{"ha":501,"x_min":0,"x_max":0,"o":"m 203 -61 l 132 -371 l 229 -404 l 365 -118 z m 488 800 b 410 822 469 814 438 822 l 365 822 b 250 747 328 822 272 803 l 250 819 l 69 819 l 69 0 l 250 0 l 250 574 b 319 644 250 622 271 643 l 378 644 b 446 631 417 644 428 642 l 488 800 z "},"Ș":{"ha":847,"x_min":0,"x_max":0,"o":"m 372 -61 l 301 -371 l 399 -404 l 535 -118 z m 771 357 b 589 586 771 472 696 543 l 328 690 b 271 797 281 710 271 735 l 271 811 b 368 908 271 874 306 908 l 479 908 b 576 821 542 908 572 875 l 771 869 b 521 1097 760 988 661 1097 l 326 1097 b 76 847 188 1097 76 986 l 76 765 b 261 514 76 628 167 551 l 514 413 b 576 324 563 393 576 372 l 576 286 b 479 189 576 224 542 189 l 368 189 b 271 279 306 189 274 222 l 76 231 b 326 0 90 103 188 0 l 521 0 b 771 250 660 0 771 111 z "},"ș":{"ha":715,"x_min":0,"x_max":0,"o":"m 313 -61 l 242 -371 l 339 -404 l 475 -118 z m 646 249 b 504 449 646 360 578 422 l 289 528 b 250 579 258 539 250 554 l 250 588 b 319 644 250 622 271 644 l 396 644 b 465 582 442 644 463 625 l 646 628 b 453 819 644 739 564 819 l 263 819 b 69 625 151 819 69 736 l 69 569 b 217 368 69 461 149 393 l 421 293 b 465 244 454 281 465 265 l 465 239 b 396 175 465 197 444 175 l 321 175 b 250 238 274 175 253 194 l 69 192 b 264 0 71 81 153 0 l 453 0 b 646 194 564 0 646 82 z "},"Ț":{"ha":847,"x_min":0,"x_max":0,"o":"m 346 -61 l 275 -371 l 372 -404 l 508 -118 z m 771 1097 l 76 1097 l 76 908 l 326 908 l 326 0 l 521 0 l 521 908 l 771 908 z "},"ț":{"ha":497,"x_min":0,"x_max":0,"o":"m 193 -61 l 122 -371 l 219 -404 l 356 -118 z m 463 175 l 340 175 b 271 244 292 175 271 196 l 271 638 l 449 638 l 449 813 l 271 813 l 271 1026 l 90 981 l 90 813 l 21 813 l 21 638 l 90 638 l 90 196 b 285 0 90 83 174 0 l 463 0 z "},"Ş":{"ha":847,"x_min":0,"x_max":0,"o":"m 771 357 b 589 586 771 472 696 543 l 328 690 b 271 797 281 710 271 735 l 271 811 b 368 908 271 874 306 908 l 479 908 b 576 821 542 908 572 875 l 771 869 b 521 1097 760 988 661 1097 l 326 1097 b 76 847 188 1097 76 986 l 76 765 b 261 514 76 628 167 551 l 514 413 b 576 324 563 393 576 372 l 576 286 b 479 189 576 224 542 189 l 368 189 b 271 279 306 189 274 222 l 76 231 b 326 0 90 103 188 0 l 354 0 l 335 -111 b 383 -111 357 -111 383 -111 b 436 -156 419 -111 436 -124 b 386 -200 436 -185 419 -200 b 315 -201 386 -200 339 -201 l 315 -278 l 435 -278 b 568 -164 528 -278 568 -253 b 465 -49 568 -68 528 -49 l 475 0 l 521 0 b 771 250 660 0 771 111 z "},"ş":{"ha":715,"x_min":0,"x_max":0,"o":"m 646 249 b 504 449 646 360 578 422 l 289 528 b 250 579 258 539 250 554 l 250 588 b 319 644 250 622 271 644 l 396 644 b 465 582 442 644 463 625 l 646 628 b 453 819 644 739 564 819 l 263 819 b 69 625 151 819 69 736 l 69 569 b 217 368 69 461 149 393 l 421 293 b 465 244 454 281 465 265 l 465 239 b 396 175 465 197 444 175 l 321 175 b 250 238 274 175 253 194 l 69 192 b 264 0 71 81 153 0 l 290 0 l 271 -111 b 319 -111 293 -111 319 -111 b 372 -156 356 -111 372 -124 b 322 -200 372 -185 356 -200 b 251 -201 322 -200 275 -201 l 251 -278 l 371 -278 b 504 -164 464 -278 504 -253 b 401 -49 504 -68 464 -49 l 411 0 l 453 0 b 646 194 564 0 646 82 z "},"Ţ":{"ha":847,"x_min":0,"x_max":0,"o":"m 771 1097 l 76 1097 l 76 908 l 326 908 l 326 0 l 365 0 l 346 -111 b 394 -111 368 -111 394 -111 b 447 -156 431 -111 447 -124 b 397 -200 447 -185 431 -200 b 326 -201 397 -200 350 -201 l 326 -278 l 446 -278 b 579 -164 539 -278 579 -253 b 476 -49 579 -68 539 -49 l 486 0 l 521 0 l 521 908 l 771 908 z "},"ţ":{"ha":497,"x_min":0,"x_max":0,"o":"m 150 -111 l 201 -111 b 251 -157 236 -111 251 -129 b 201 -200 251 -185 238 -200 l 131 -201 l 131 -278 l 250 -278 b 383 -164 343 -278 383 -258 b 281 -49 383 -68 343 -49 l 290 0 l 463 0 l 463 175 l 340 175 b 271 244 292 175 271 196 l 271 638 l 449 638 l 449 813 l 271 813 l 271 1026 l 90 981 l 90 813 l 21 813 l 21 638 l 90 638 l 90 196 b 174 33 90 125 122 67 z "},"Ľ":{"ha":847,"x_min":0,"x_max":0,"o":"m 771 189 l 271 189 l 271 1097 l 76 1097 l 76 0 l 771 0 z m 467 1108 l 396 800 l 493 767 l 629 1053 z "},"ľ":{"ha":519,"x_min":0,"x_max":0,"o":"m 250 1097 l 69 1097 l 69 0 l 250 0 z m 385 1113 l 314 803 l 411 769 l 547 1056 z "},"ŉ":{"ha":831,"x_min":0,"x_max":0,"o":"m 761 624 b 568 819 761 736 681 819 l 500 819 b 382 769 457 819 404 797 l 382 819 l 201 819 l 201 0 l 382 0 l 382 574 b 451 644 382 622 403 644 l 511 644 b 581 574 560 644 581 622 l 581 0 l 761 0 z m 71 1113 l 0 803 l 97 769 l 233 1056 z "},"Ą":{"ha":847,"x_min":0,"x_max":0,"o":"m 350 371 l 410 681 b 424 703 411 688 415 703 b 438 681 433 703 436 688 l 497 371 z m 518 1097 l 329 1097 l 76 0 l 278 0 l 314 182 l 533 182 l 569 0 l 596 0 b 475 -181 525 -43 475 -111 b 618 -317 475 -264 536 -317 b 743 -281 664 -317 707 -303 l 771 -172 b 697 -192 744 -186 724 -192 b 631 -133 653 -192 631 -169 b 711 0 631 -99 651 -44 l 771 0 z "},"ą":{"ha":692,"x_min":0,"x_max":0,"o":"m 442 244 b 372 175 442 196 421 175 l 306 175 b 236 244 258 175 236 196 l 236 256 b 306 326 236 306 257 326 l 442 326 l 442 244 z m 622 625 b 428 819 622 738 539 819 l 258 819 b 63 638 144 819 63 750 l 63 625 l 233 582 b 304 644 236 622 254 644 l 372 644 b 442 574 419 644 442 622 l 442 503 l 250 503 b 56 307 139 503 56 418 l 56 196 b 250 0 56 83 139 0 l 351 0 b 456 49 396 0 438 21 l 471 13 b 326 -181 388 -29 326 -104 b 469 -317 326 -264 388 -317 b 594 -281 515 -317 558 -303 l 622 -172 b 549 -192 596 -186 575 -192 b 482 -133 504 -192 482 -169 b 563 0 482 -99 503 -44 l 622 0 z "},"Ę":{"ha":847,"x_min":0,"x_max":0,"o":"m 771 189 l 271 189 l 271 454 l 632 454 l 632 643 l 271 643 l 271 908 l 771 908 l 771 1097 l 76 1097 l 76 0 l 596 0 b 475 -181 525 -43 475 -111 b 618 -317 475 -264 536 -317 b 743 -281 664 -317 707 -303 l 771 -172 b 697 -192 744 -186 724 -192 b 631 -133 653 -192 631 -169 b 711 0 631 -99 651 -44 l 771 0 z "},"ę":{"ha":860,"x_min":0,"x_max":0,"o":"m 456 493 l 250 493 l 250 575 b 321 644 250 624 271 644 l 386 644 b 456 575 435 644 457 624 z m 636 624 b 442 819 636 736 554 819 l 263 819 b 69 625 151 819 69 736 l 69 194 b 265 0 69 82 153 0 l 378 0 b 257 -181 307 -43 257 -111 b 400 -317 257 -264 318 -317 b 525 -281 446 -317 489 -303 l 553 -172 b 479 -192 526 -186 506 -192 b 413 -133 435 -192 413 -169 b 510 11 413 -96 438 -35 b 629 182 582 36 629 96 l 629 194 l 458 238 b 389 175 456 197 438 175 l 321 175 b 250 246 274 175 250 197 l 250 317 l 636 317 z "},"Į":{"ha":347,"x_min":0,"x_max":0,"o":"m 311 -172 b 238 -192 285 -186 264 -192 b 171 -133 193 -192 171 -169 b 251 0 171 -99 192 -44 l 271 0 l 271 1097 l 76 1097 l 76 0 l 136 0 b 15 -181 65 -43 15 -111 b 158 -317 15 -264 76 -317 b 283 -281 204 -317 247 -303 l 311 -172 z "},"į":{"ha":319,"x_min":0,"x_max":0,"o":"m 290 -172 b 217 -192 264 -186 243 -192 b 150 -133 172 -192 150 -169 b 231 0 150 -99 171 -44 l 250 0 l 250 819 l 69 819 l 69 0 l 115 0 b -6 -181 44 -43 -6 -111 b 138 -317 -6 -264 56 -317 b 263 -281 183 -317 226 -303 l 290 -172 z m 250 1096 l 69 1096 l 69 921 l 250 921 z "},"Ų":{"ha":847,"x_min":0,"x_max":0,"o":"m 771 1097 l 576 1097 l 576 286 b 479 189 576 224 542 189 l 368 189 b 271 286 306 189 271 224 l 271 1097 l 76 1097 l 76 250 b 326 0 76 111 186 0 l 401 0 b 281 -181 331 -43 281 -111 b 424 -317 281 -264 342 -317 b 549 -281 469 -317 513 -303 l 576 -172 b 503 -192 550 -186 529 -192 b 436 -133 458 -192 436 -169 b 517 0 436 -99 457 -44 l 521 0 b 771 250 660 0 771 111 z "},"ų":{"ha":699,"x_min":0,"x_max":0,"o":"m 629 819 l 449 819 l 449 244 b 379 175 449 196 428 175 l 319 175 b 250 244 271 175 250 196 l 250 819 l 69 819 l 69 196 b 263 -1 69 83 150 -1 l 331 -1 b 449 50 374 -1 426 22 l 449 0 l 451 0 b 331 -181 381 -43 331 -111 b 474 -317 331 -264 392 -317 b 599 -281 519 -317 563 -303 l 626 -172 b 553 -192 600 -186 579 -192 b 486 -133 508 -192 486 -169 b 567 0 486 -99 507 -44 l 629 0 z "},"Ā":{"ha":847,"x_min":0,"x_max":0,"o":"m 350 371 l 410 681 b 424 703 411 688 415 703 b 438 681 433 703 436 688 l 497 371 z m 518 1097 l 329 1097 l 76 0 l 278 0 l 314 182 l 533 182 l 569 0 l 771 0 z m 633 1301 l 208 1301 l 208 1168 l 633 1168 z "},"ā":{"ha":692,"x_min":0,"x_max":0,"o":"m 442 244 b 372 175 442 196 421 175 l 306 175 b 236 244 258 175 236 196 l 236 256 b 306 326 236 306 257 326 l 442 326 l 442 244 z m 622 625 b 428 819 622 738 539 819 l 258 819 b 63 638 144 819 63 750 l 63 625 l 233 582 b 304 644 236 622 254 644 l 372 644 b 442 574 419 644 442 622 l 442 503 l 250 503 b 56 307 139 503 56 418 l 56 196 b 250 0 56 83 139 0 l 351 0 b 456 49 396 0 438 21 l 476 0 l 622 0 z m 557 1029 l 132 1029 l 132 896 l 557 896 z "},"Ē":{"ha":847,"x_min":0,"x_max":0,"o":"m 771 189 l 271 189 l 271 454 l 632 454 l 632 643 l 271 643 l 271 908 l 771 908 l 771 1097 l 76 1097 l 76 0 l 771 0 z m 632 1301 l 207 1301 l 207 1168 l 632 1168 z "},"ē":{"ha":706,"x_min":0,"x_max":0,"o":"m 456 493 l 250 493 l 250 575 b 321 644 250 624 271 644 l 386 644 b 456 575 435 644 457 624 z m 636 624 b 442 819 636 736 554 819 l 263 819 b 69 625 151 819 69 736 l 69 194 b 265 0 69 82 153 0 l 435 0 b 629 182 547 0 629 69 l 629 194 l 458 238 b 389 175 456 197 438 175 l 321 175 b 250 246 274 175 250 197 l 250 317 l 636 317 z m 565 1024 l 140 1024 l 140 890 l 565 890 z "},"Ī":{"ha":347,"x_min":0,"x_max":0,"o":"m 271 1097 l 76 1097 l 76 0 l 271 0 z m 386 1301 l -39 1301 l -39 1168 l 386 1168 z "},"ī":{"ha":319,"x_min":0,"x_max":0,"o":"m 250 819 l 69 819 l 69 0 l 250 0 z m 372 1022 l -53 1022 l -53 889 l 372 889 z "},"Ō":{"ha":847,"x_min":0,"x_max":0,"o":"m 576 286 b 479 189 576 225 542 189 l 368 189 b 271 286 306 189 271 224 l 271 811 b 368 908 271 874 306 908 l 479 908 b 576 811 542 908 576 874 l 576 286 z m 771 847 b 521 1097 771 986 660 1097 l 326 1097 b 76 847 188 1097 76 986 l 76 250 b 326 0 76 110 188 0 l 521 0 b 771 250 660 0 771 111 z m 636 1300 l 211 1300 l 211 1167 l 636 1167 z "},"ō":{"ha":715,"x_min":0,"x_max":0,"o":"m 465 246 b 396 175 465 197 444 175 l 319 175 b 250 246 271 175 250 197 l 250 574 b 319 644 250 622 271 644 l 396 644 b 465 574 444 644 465 622 l 465 246 z m 646 624 b 451 819 646 736 563 819 l 264 819 b 69 625 153 819 69 738 l 69 194 b 264 0 69 82 153 0 l 451 0 b 646 194 563 0 646 82 z m 572 1029 l 147 1029 l 147 896 l 572 896 z "},"Ū":{"ha":847,"x_min":0,"x_max":0,"o":"m 771 1097 l 576 1097 l 576 286 b 479 189 576 224 542 189 l 368 189 b 271 286 306 189 271 224 l 271 1097 l 76 1097 l 76 250 b 326 0 76 111 186 0 l 521 0 b 771 250 660 0 771 111 z m 632 1299 l 207 1299 l 207 1165 l 632 1165 z "},"ū":{"ha":699,"x_min":0,"x_max":0,"o":"m 629 819 l 449 819 l 449 244 b 379 175 449 196 428 175 l 319 175 b 250 244 271 175 250 196 l 250 819 l 69 819 l 69 196 b 263 -1 69 83 150 -1 l 331 -1 b 449 50 374 -1 426 22 l 449 0 l 629 0 z m 563 1022 l 138 1022 l 138 889 l 563 889 z "},"Đ":{"ha":847,"x_min":0,"x_max":0,"o":"m 576 286 b 479 189 576 222 542 189 l 326 189 l 326 454 l 438 454 l 438 643 l 326 643 l 326 908 l 479 908 b 576 811 542 908 576 874 l 576 286 z m 771 847 b 521 1097 771 986 660 1097 l 76 1097 l 76 908 l 132 908 l 132 643 l 76 643 l 76 454 l 132 454 l 132 189 l 76 189 l 76 0 l 521 0 b 771 250 660 0 771 111 z "},"đ":{"ha":726,"x_min":0,"x_max":0,"o":"m 476 246 b 407 175 476 197 456 175 l 319 175 b 250 246 271 175 250 197 l 250 574 b 319 644 250 622 271 644 l 407 644 b 476 574 456 644 476 622 l 476 246 z m 713 1022 l 657 1022 l 657 1097 l 476 1097 l 476 1022 l 288 1022 l 288 889 l 476 889 l 476 769 b 358 819 449 804 407 819 l 263 819 b 69 625 151 819 69 738 l 69 194 b 263 0 69 82 151 0 l 375 0 b 492 49 428 0 467 17 l 513 0 l 657 0 l 657 889 l 713 889 z "},"ĸ":{"ha":726,"x_min":0,"x_max":0,"o":"m 657 51 b 624 149 657 85 649 108 l 429 467 l 606 657 b 657 774 643 699 657 733 l 657 819 l 474 819 l 474 792 b 442 725 474 763 468 751 l 250 517 l 250 819 l 69 819 l 69 0 l 250 0 l 250 294 l 296 347 l 456 90 b 474 31 468 71 474 51 l 474 -1 l 657 0 z "},"Ĉ":{"ha":847,"x_min":0,"x_max":0,"o":"m 576 275 b 479 189 576 222 540 189 l 368 189 b 271 286 306 189 271 224 l 271 811 b 368 908 271 874 306 908 l 479 908 b 576 819 542 908 576 867 l 771 868 b 521 1097 760 990 660 1097 l 326 1097 b 76 847 188 1097 76 986 l 76 250 b 326 0 76 111 188 0 l 521 0 b 771 226 660 0 758 107 z m 493 1358 l 357 1358 l 200 1183 l 342 1149 l 425 1242 l 510 1150 l 651 1185 z "},"ĉ":{"ha":715,"x_min":0,"x_max":0,"o":"m 465 238 b 396 175 463 194 442 175 l 319 175 b 250 246 271 175 250 197 l 250 574 b 319 644 250 622 271 644 l 396 644 b 465 582 442 644 463 625 l 646 628 b 453 819 644 739 564 819 l 263 819 b 69 625 151 819 69 738 l 69 194 b 263 0 69 82 151 0 l 453 0 b 646 192 563 0 644 81 z m 429 1083 l 293 1083 l 135 908 l 276 874 l 361 967 l 444 875 l 586 910 z "},"Ĝ":{"ha":847,"x_min":0,"x_max":0,"o":"m 771 579 l 438 579 l 438 390 l 576 390 l 576 286 b 479 189 576 224 542 189 l 368 189 b 271 286 306 189 271 224 l 271 811 b 368 908 271 874 306 908 l 479 908 b 576 824 542 908 576 868 l 771 872 b 521 1097 753 997 660 1097 l 326 1097 b 76 847 188 1097 76 986 l 76 250 b 326 0 76 111 188 0 l 521 0 b 771 250 660 0 771 111 z m 492 1363 l 356 1363 l 199 1188 l 340 1153 l 424 1246 l 508 1154 l 650 1189 z "},"ĝ":{"ha":726,"x_min":0,"x_max":0,"o":"m 476 285 b 407 215 476 236 456 215 l 319 215 b 250 285 271 215 250 236 l 250 574 b 319 644 250 622 271 644 l 407 644 b 476 574 456 644 476 622 l 476 285 z m 657 819 l 511 819 l 490 774 b 372 819 468 800 421 819 l 263 819 b 69 626 151 819 69 738 l 69 233 b 263 39 69 121 150 39 l 358 39 b 476 89 401 39 454 61 l 476 -32 b 407 -103 476 -81 454 -103 l 332 -103 b 261 -40 282 -103 264 -81 l 90 -83 l 90 -96 b 285 -278 90 -208 172 -278 l 463 -278 b 657 -85 575 -278 657 -197 z m 440 1083 l 304 1083 l 146 908 l 288 874 l 372 967 l 456 875 l 597 910 z "},"Ĥ":{"ha":847,"x_min":0,"x_max":0,"o":"m 771 1097 l 576 1097 l 576 643 l 271 643 l 271 1097 l 76 1097 l 76 0 l 271 0 l 271 454 l 576 454 l 576 0 l 771 0 z m 494 1360 l 358 1360 l 201 1185 l 343 1150 l 426 1243 l 511 1151 l 653 1186 z "},"ĥ":{"ha":726,"x_min":0,"x_max":0,"o":"m 657 624 b 463 819 657 736 574 819 l 368 819 b 250 769 325 819 272 797 l 250 1097 l 69 1097 l 69 0 l 250 0 l 250 574 b 319 644 250 622 271 644 l 407 644 b 476 574 456 644 476 622 l 476 0 l 657 0 z m 436 1361 l 300 1361 l 143 1186 l 285 1151 l 368 1244 l 453 1153 l 594 1188 z "},"Ĵ":{"ha":847,"x_min":0,"x_max":0,"o":"m 771 1097 l 576 1097 l 576 286 b 479 189 576 224 542 189 l 368 189 b 271 275 306 189 271 226 l 76 226 b 326 0 92 99 192 0 l 521 0 b 771 250 660 0 771 111 z m 739 1358 l 603 1358 l 446 1183 l 588 1149 l 671 1242 l 756 1150 l 897 1185 z "},"ĵ":{"ha":319,"x_min":0,"x_max":0,"o":"m 250 819 l 69 819 l 69 -33 b 0 -103 69 -82 49 -103 l -56 -103 l -56 -278 l 69 -278 b 250 -103 181 -278 250 -215 z m 229 1088 l 93 1088 l -65 913 l 76 878 l 160 971 l 244 879 l 386 914 z "},"Ŝ":{"ha":847,"x_min":0,"x_max":0,"o":"m 771 357 b 589 586 771 472 696 543 l 328 690 b 271 797 281 710 271 735 l 271 811 b 368 908 271 874 306 908 l 479 908 b 576 821 542 908 572 875 l 771 869 b 521 1097 760 988 661 1097 l 326 1097 b 76 847 188 1097 76 986 l 76 765 b 261 514 76 628 167 551 l 514 413 b 576 324 563 393 576 372 l 576 286 b 479 189 576 224 542 189 l 368 189 b 271 279 306 189 274 222 l 76 231 b 326 0 90 103 188 0 l 521 0 b 771 250 660 0 771 111 z m 492 1358 l 356 1358 l 199 1183 l 340 1149 l 424 1242 l 508 1150 l 650 1185 z "},"ŝ":{"ha":715,"x_min":0,"x_max":0,"o":"m 646 249 b 504 449 646 360 578 422 l 289 528 b 250 579 258 539 250 554 l 250 588 b 319 644 250 622 271 644 l 396 644 b 465 582 442 644 463 625 l 646 628 b 453 819 644 739 564 819 l 263 819 b 69 625 151 819 69 736 l 69 569 b 217 368 69 461 149 393 l 421 293 b 465 244 454 281 465 265 l 465 239 b 396 175 465 197 444 175 l 321 175 b 250 238 274 175 253 194 l 69 192 b 264 0 71 81 153 0 l 453 0 b 646 194 564 0 646 82 z m 424 1083 l 288 1083 l 129 908 l 271 874 l 356 967 l 439 875 l 581 910 z "},"Ŵ":{"ha":847,"x_min":0,"x_max":0,"o":"m 576 1097 l 546 563 b 538 547 546 557 544 547 b 525 563 531 547 526 557 l 440 881 b 425 896 439 888 433 896 b 410 881 417 896 411 888 l 324 563 b 311 547 322 557 318 547 b 303 563 304 547 303 557 l 272 1097 l 76 1097 l 139 0 l 321 0 l 411 329 b 425 344 413 336 417 344 b 439 329 433 344 438 336 l 528 0 l 711 0 l 772 1097 z m 493 1358 l 357 1358 l 200 1183 l 342 1149 l 425 1242 l 510 1150 l 651 1185 z "},"ŵ":{"ha":799,"x_min":0,"x_max":0,"o":"m 586 819 l 526 401 b 514 385 526 396 522 385 b 501 401 507 385 503 396 l 415 663 b 400 679 411 676 406 679 b 385 663 394 679 389 676 l 297 401 b 285 385 296 396 293 385 b 272 401 278 385 274 396 l 213 819 l 28 819 l 161 0 l 313 0 l 388 253 b 400 268 392 265 393 268 b 413 253 406 268 408 265 l 488 0 l 639 0 l 771 819 z m 469 1083 l 333 1083 l 175 908 l 317 874 l 401 967 l 485 875 l 626 910 z "},"Ŷ":{"ha":847,"x_min":0,"x_max":0,"o":"m 771 1097 l 576 1097 l 576 1054 b 558 964 576 1026 571 993 l 424 650 l 289 964 b 271 1054 276 992 271 1026 l 271 1097 l 76 1097 l 76 1032 b 111 883 76 983 86 938 l 326 404 l 326 0 l 521 0 l 521 404 l 736 883 b 771 1031 760 936 771 982 z m 490 1358 l 354 1358 l 197 1183 l 339 1149 l 422 1242 l 507 1150 l 649 1185 z "},"ŷ":{"ha":694,"x_min":0,"x_max":0,"o":"m 482 819 l 358 346 b 346 329 357 340 354 329 b 333 346 339 329 335 340 l 213 819 l 28 819 l 258 0 l 250 -31 b 157 -103 236 -79 206 -103 l 101 -103 l 101 -278 l 176 -278 b 408 -99 279 -278 374 -225 l 667 819 z m 411 1083 l 275 1083 l 117 908 l 258 874 l 343 967 l 426 875 l 568 910 z "},"Ů":{"ha":847,"x_min":0,"x_max":0,"o":"m 478 1313 b 422 1254 478 1282 454 1254 b 367 1313 390 1254 367 1282 b 422 1371 367 1343 390 1371 b 478 1313 454 1371 478 1343 z m 771 1097 l 576 1097 l 576 286 b 479 189 576 224 542 189 l 368 189 b 271 286 306 189 271 224 l 271 1097 l 76 1097 l 76 250 b 326 0 76 111 186 0 l 521 0 b 771 250 660 0 771 111 z m 579 1311 b 424 1475 579 1399 513 1475 b 267 1311 333 1475 267 1400 b 424 1149 267 1224 333 1149 b 579 1311 513 1149 579 1225 z "},"ů":{"ha":699,"x_min":0,"x_max":0,"o":"m 407 1039 b 353 981 407 1007 385 981 b 297 1039 321 981 297 1007 b 353 1096 297 1069 321 1096 b 407 1039 385 1096 407 1069 z m 629 819 l 449 819 l 449 244 b 379 175 449 196 428 175 l 319 175 b 250 244 271 175 250 196 l 250 819 l 69 819 l 69 196 b 263 -1 69 83 150 -1 l 331 -1 b 449 50 374 -1 426 22 l 449 0 l 629 0 z m 508 1038 b 353 1201 508 1125 443 1201 b 196 1038 263 1201 196 1125 b 353 875 196 950 263 875 b 508 1038 443 875 508 950 z "},"Ő":{"ha":847,"x_min":0,"x_max":0,"o":"m 576 286 b 479 189 576 225 542 189 l 368 189 b 271 286 306 189 271 224 l 271 811 b 368 908 271 874 306 908 l 479 908 b 576 811 542 908 576 874 l 576 286 z m 771 847 b 521 1097 771 986 660 1097 l 326 1097 b 76 847 188 1097 76 986 l 76 250 b 326 0 76 110 188 0 l 521 0 b 771 250 660 0 771 111 z m 358 1414 l 251 1188 l 332 1140 l 479 1336 z m 567 1414 l 460 1188 l 540 1140 l 688 1336 z "},"ő":{"ha":715,"x_min":0,"x_max":0,"o":"m 465 246 b 396 175 465 197 444 175 l 319 175 b 250 246 271 175 250 197 l 250 574 b 319 644 250 622 271 644 l 396 644 b 465 574 444 644 465 622 l 465 246 z m 646 624 b 451 819 646 736 563 819 l 264 819 b 69 625 153 819 69 738 l 69 194 b 264 0 69 82 153 0 l 451 0 b 646 194 563 0 646 82 z m 289 1149 l 183 921 l 263 874 l 410 1071 z m 497 1149 l 392 921 l 471 874 l 618 1071 z "},"Ű":{"ha":847,"x_min":0,"x_max":0,"o":"m 771 1097 l 576 1097 l 576 286 b 479 189 576 224 542 189 l 368 189 b 271 286 306 189 271 224 l 271 1097 l 76 1097 l 76 250 b 326 0 76 111 186 0 l 521 0 b 771 250 660 0 771 111 z m 349 1414 l 242 1188 l 322 1140 l 469 1336 z m 557 1414 l 450 1188 l 531 1140 l 678 1336 z "},"ű":{"ha":699,"x_min":0,"x_max":0,"o":"m 629 819 l 449 819 l 449 244 b 379 175 449 196 428 175 l 319 175 b 250 244 271 175 250 196 l 250 819 l 69 819 l 69 196 b 263 -1 69 83 150 -1 l 331 -1 b 449 50 374 -1 426 22 l 449 0 l 629 0 z m 286 1149 l 181 921 l 260 874 l 407 1071 z m 494 1149 l 389 921 l 468 874 l 615 1071 z "},"Ă":{"ha":847,"x_min":0,"x_max":0,"o":"m 350 371 l 410 681 b 424 703 411 688 415 703 b 438 681 433 703 436 688 l 497 371 z m 518 1097 l 329 1097 l 76 0 l 278 0 l 314 182 l 533 182 l 569 0 l 771 0 z m 539 1344 b 422 1275 522 1283 481 1275 b 314 1344 367 1275 332 1289 l 201 1344 b 429 1149 215 1215 301 1149 b 646 1344 553 1149 639 1219 z "},"ă":{"ha":692,"x_min":0,"x_max":0,"o":"m 442 244 b 372 175 442 196 421 175 l 306 175 b 236 244 258 175 236 196 l 236 256 b 306 326 236 306 257 326 l 442 326 l 442 244 z m 622 625 b 428 819 622 738 539 819 l 258 819 b 63 638 144 819 63 750 l 63 625 l 233 582 b 304 644 236 622 254 644 l 372 644 b 442 574 419 644 442 622 l 442 503 l 250 503 b 56 307 139 503 56 418 l 56 196 b 250 0 56 83 139 0 l 351 0 b 456 49 396 0 438 21 l 476 0 l 622 0 z m 464 1072 b 349 1001 447 1010 406 1001 b 239 1072 292 1001 258 1015 l 126 1072 b 354 875 140 943 226 875 b 571 1072 478 875 564 946 z "},"Ĕ":{"ha":847,"x_min":0,"x_max":0,"o":"m 771 189 l 271 189 l 271 454 l 632 454 l 632 643 l 271 643 l 271 908 l 771 908 l 771 1097 l 76 1097 l 76 0 l 771 0 z m 544 1344 b 428 1275 528 1283 486 1275 b 319 1344 372 1275 338 1289 l 207 1344 b 435 1149 221 1215 307 1149 b 651 1344 558 1149 644 1219 z "},"ĕ":{"ha":706,"x_min":0,"x_max":0,"o":"m 456 493 l 250 493 l 250 575 b 321 644 250 624 271 644 l 386 644 b 456 575 435 644 457 624 z m 636 624 b 442 819 636 736 554 819 l 263 819 b 69 625 151 819 69 736 l 69 194 b 265 0 69 82 153 0 l 435 0 b 629 182 547 0 629 69 l 629 194 l 458 238 b 389 175 456 197 438 175 l 321 175 b 250 246 274 175 250 197 l 250 317 l 636 317 z m 475 1072 b 360 1001 458 1010 417 1001 b 250 1072 303 1001 269 1015 l 138 1072 b 365 875 151 943 238 875 b 582 1072 489 875 575 946 z "},"Ğ":{"ha":847,"x_min":0,"x_max":0,"o":"m 771 579 l 438 579 l 438 390 l 576 390 l 576 286 b 479 189 576 224 542 189 l 368 189 b 271 286 306 189 271 224 l 271 811 b 368 908 271 874 306 908 l 479 908 b 576 824 542 908 576 868 l 771 872 b 521 1097 753 997 660 1097 l 326 1097 b 76 847 188 1097 76 986 l 76 250 b 326 0 76 111 188 0 l 521 0 b 771 250 660 0 771 111 z m 531 1344 b 414 1275 514 1283 472 1275 b 306 1344 358 1275 324 1289 l 193 1344 b 421 1149 207 1215 293 1149 b 638 1344 544 1149 631 1219 z "},"ğ":{"ha":726,"x_min":0,"x_max":0,"o":"m 476 285 b 407 215 476 236 456 215 l 319 215 b 250 285 271 215 250 236 l 250 574 b 319 644 250 622 271 644 l 407 644 b 476 574 456 644 476 622 l 476 285 z m 657 819 l 511 819 l 490 774 b 372 819 468 800 421 819 l 263 819 b 69 626 151 819 69 738 l 69 233 b 263 39 69 121 150 39 l 358 39 b 476 89 401 39 454 61 l 476 -32 b 407 -103 476 -81 454 -103 l 332 -103 b 261 -40 282 -103 264 -81 l 90 -83 l 90 -96 b 285 -278 90 -208 172 -278 l 463 -278 b 657 -85 575 -278 657 -197 z m 486 1072 b 371 1001 469 1010 428 1001 b 261 1072 314 1001 281 1015 l 149 1072 b 376 875 163 943 249 875 b 593 1072 500 875 586 946 z "},"Ĭ":{"ha":347,"x_min":0,"x_max":0,"o":"m 271 1097 l 76 1097 l 76 0 l 271 0 z m 289 1344 b 172 1275 272 1283 231 1275 b 64 1344 117 1275 82 1289 l -49 1344 b 179 1149 -35 1215 51 1149 b 396 1344 303 1149 389 1219 z "},"ĭ":{"ha":319,"x_min":0,"x_max":0,"o":"m 250 819 l 69 819 l 69 0 l 250 0 z m 274 1072 b 158 1001 257 1010 215 1001 b 49 1072 101 1001 68 1015 l -64 1072 b 164 875 -50 943 36 875 b 381 1072 288 875 374 946 z "},"Ŏ":{"ha":847,"x_min":0,"x_max":0,"o":"m 576 286 b 479 189 576 225 542 189 l 368 189 b 271 286 306 189 271 224 l 271 811 b 368 908 271 874 306 908 l 479 908 b 576 811 542 908 576 874 l 576 286 z m 771 847 b 521 1097 771 986 660 1097 l 326 1097 b 76 847 188 1097 76 986 l 76 250 b 326 0 76 110 188 0 l 521 0 b 771 250 660 0 771 111 z m 542 1344 b 425 1275 525 1283 483 1275 b 317 1344 369 1275 335 1289 l 204 1344 b 432 1149 218 1215 304 1149 b 649 1344 556 1149 642 1219 z "},"ŏ":{"ha":715,"x_min":0,"x_max":0,"o":"m 465 246 b 396 175 465 197 444 175 l 319 175 b 250 246 271 175 250 197 l 250 574 b 319 644 250 622 271 644 l 396 644 b 465 574 444 644 465 622 l 465 246 z m 646 624 b 451 819 646 736 563 819 l 264 819 b 69 625 153 819 69 738 l 69 194 b 264 0 69 82 153 0 l 451 0 b 646 194 563 0 646 82 z m 472 1074 b 356 1003 454 1011 414 1003 b 246 1074 300 1003 265 1017 l 135 1074 b 361 876 147 944 235 876 b 579 1074 485 876 571 947 z "},"Ŭ":{"ha":847,"x_min":0,"x_max":0,"o":"m 771 1097 l 576 1097 l 576 286 b 479 189 576 224 542 189 l 368 189 b 271 286 306 189 271 224 l 271 1097 l 76 1097 l 76 250 b 326 0 76 111 186 0 l 521 0 b 771 250 660 0 771 111 z m 542 1344 b 425 1275 525 1283 483 1275 b 317 1344 369 1275 335 1289 l 204 1344 b 432 1149 218 1215 304 1149 b 649 1344 556 1149 642 1219 z "},"ŭ":{"ha":699,"x_min":0,"x_max":0,"o":"m 629 819 l 449 819 l 449 244 b 379 175 449 196 428 175 l 319 175 b 250 244 271 175 250 196 l 250 819 l 69 819 l 69 196 b 263 -1 69 83 150 -1 l 331 -1 b 449 50 374 -1 426 22 l 449 0 l 629 0 z m 467 1072 b 351 1001 450 1010 408 1001 b 242 1072 294 1001 261 1015 l 129 1072 b 357 875 143 943 229 875 b 574 1072 481 875 567 946 z "},"Ĩ":{"ha":347,"x_min":0,"x_max":0,"o":"m 271 1097 l 76 1097 l 76 0 l 271 0 z m 300 1340 b 257 1288 300 1311 289 1288 b 88 1340 199 1288 156 1340 b -51 1196 -7 1342 -49 1296 l -51 1169 l 47 1169 b 92 1221 47 1206 63 1221 b 260 1168 136 1219 196 1168 b 399 1313 354 1168 396 1213 l 399 1340 z "},"ĩ":{"ha":319,"x_min":0,"x_max":0,"o":"m 250 819 l 69 819 l 69 0 l 250 0 z m 286 1063 b 243 1010 286 1032 275 1010 b 74 1063 185 1010 142 1063 b -65 918 -21 1063 -62 1017 l -65 892 l 33 892 b 78 943 33 928 49 943 b 246 889 122 942 182 889 b 385 1035 340 889 382 935 l 385 1063 z "},"Ũ":{"ha":847,"x_min":0,"x_max":0,"o":"m 771 1097 l 576 1097 l 576 286 b 479 189 576 224 542 189 l 368 189 b 271 286 306 189 271 224 l 271 1097 l 76 1097 l 76 250 b 326 0 76 111 186 0 l 521 0 b 771 250 660 0 771 111 z m 550 1338 b 507 1285 550 1308 539 1285 b 338 1338 449 1285 406 1338 b 199 1193 243 1339 201 1293 l 199 1167 l 297 1167 b 342 1218 297 1203 313 1218 b 510 1165 386 1217 446 1165 b 649 1310 604 1165 646 1210 l 649 1338 z "},"ũ":{"ha":699,"x_min":0,"x_max":0,"o":"m 629 819 l 449 819 l 449 244 b 379 175 449 196 428 175 l 319 175 b 250 244 271 175 250 196 l 250 819 l 69 819 l 69 196 b 263 -1 69 83 150 -1 l 331 -1 b 449 50 374 -1 426 22 l 449 0 l 629 0 z m 475 1060 b 432 1007 475 1029 464 1007 b 263 1060 374 1007 331 1060 b 124 915 168 1060 126 1014 l 124 889 l 222 889 b 267 940 222 925 238 940 b 435 886 311 939 371 886 b 574 1032 529 886 571 932 l 574 1060 z "},"Ẁ":{"ha":847,"x_min":0,"x_max":0,"o":"m 576 1097 l 546 563 b 538 547 546 557 544 547 b 525 563 531 547 526 557 l 440 881 b 425 896 439 888 433 896 b 410 881 417 896 411 888 l 324 563 b 311 547 322 557 318 547 b 303 563 304 547 303 557 l 272 1097 l 76 1097 l 139 0 l 321 0 l 411 329 b 425 344 413 336 417 344 b 439 329 433 344 438 336 l 528 0 l 711 0 l 772 1097 z m 382 1433 l 272 1317 l 485 1146 l 558 1218 z "},"ẁ":{"ha":799,"x_min":0,"x_max":0,"o":"m 586 819 l 526 401 b 514 385 526 396 522 385 b 501 401 507 385 503 396 l 415 663 b 400 679 411 676 406 679 b 385 663 394 679 389 676 l 297 401 b 285 385 296 396 293 385 b 272 401 278 385 274 396 l 213 819 l 28 819 l 161 0 l 313 0 l 388 253 b 400 268 392 265 393 268 b 413 253 406 268 408 265 l 488 0 l 639 0 l 771 819 z m 361 1161 l 251 1044 l 464 874 l 538 946 z "},"Ỳ":{"ha":847,"x_min":0,"x_max":0,"o":"m 771 1097 l 576 1097 l 576 1054 b 558 964 576 1026 571 993 l 424 650 l 289 964 b 271 1054 276 992 271 1026 l 271 1097 l 76 1097 l 76 1032 b 111 883 76 983 86 938 l 326 404 l 326 0 l 521 0 l 521 404 l 736 883 b 771 1031 760 936 771 982 z m 378 1433 l 268 1317 l 481 1146 l 554 1218 z "},"ỳ":{"ha":694,"x_min":0,"x_max":0,"o":"m 482 819 l 358 346 b 346 329 357 340 354 329 b 333 346 339 329 335 340 l 213 819 l 28 819 l 258 0 l 250 -31 b 157 -103 236 -79 206 -103 l 101 -103 l 101 -278 l 176 -278 b 408 -99 279 -278 374 -225 l 667 819 z m 300 1161 l 190 1044 l 403 874 l 476 946 z "},"Ẅ":{"ha":847,"x_min":0,"x_max":0,"o":"m 576 1097 l 546 563 b 538 547 546 557 544 547 b 525 563 531 547 526 557 l 440 881 b 425 896 439 888 433 896 b 410 881 417 896 411 888 l 324 563 b 311 547 322 557 318 547 b 303 563 304 547 303 557 l 272 1097 l 76 1097 l 139 0 l 321 0 l 411 329 b 425 344 413 336 417 344 b 439 329 433 344 438 336 l 528 0 l 711 0 l 772 1097 z m 369 1326 l 203 1326 l 203 1167 l 369 1167 z m 642 1326 l 474 1326 l 474 1167 l 642 1167 z "},"ẅ":{"ha":799,"x_min":0,"x_max":0,"o":"m 586 819 l 526 401 b 514 385 526 396 522 385 b 501 401 507 385 503 396 l 415 663 b 400 679 411 676 406 679 b 385 663 394 679 389 676 l 297 401 b 285 385 296 396 293 385 b 272 401 278 385 274 396 l 213 819 l 28 819 l 161 0 l 313 0 l 388 253 b 400 268 392 265 393 268 b 413 253 406 268 408 265 l 488 0 l 639 0 l 771 819 z m 347 1047 l 182 1047 l 182 889 l 347 889 z m 619 1047 l 451 1047 l 451 889 l 619 889 z "},"Ħ":{"ha":861,"x_min":0,"x_max":0,"o":"m 278 643 l 278 758 l 583 758 l 583 643 z m 819 911 l 778 911 l 778 1097 l 583 1097 l 583 911 l 278 911 l 278 1097 l 83 1097 l 83 911 l 42 911 l 42 758 l 83 758 l 83 0 l 278 0 l 278 454 l 583 454 l 583 0 l 778 0 l 778 758 l 819 758 z "},"ħ":{"ha":740,"x_min":0,"x_max":0,"o":"m 671 624 b 476 819 671 736 588 819 l 382 819 b 264 769 339 819 286 797 l 264 896 l 440 896 l 440 1029 l 264 1029 l 264 1097 l 83 1097 l 83 1029 l 15 1029 l 15 896 l 83 896 l 83 0 l 264 0 l 264 574 b 333 644 264 622 285 644 l 421 644 b 490 574 469 644 490 622 l 490 0 l 671 0 z "},"Ŧ":{"ha":847,"x_min":0,"x_max":0,"o":"m 771 1097 l 76 1097 l 76 908 l 326 908 l 326 715 l 146 715 l 146 549 l 326 549 l 326 0 l 521 0 l 521 549 l 688 549 l 688 715 l 521 715 l 521 908 l 771 908 z "},"ŧ":{"ha":497,"x_min":0,"x_max":0,"o":"m 463 175 l 340 175 b 271 244 292 175 271 196 l 271 363 l 447 363 l 447 521 l 271 521 l 271 638 l 449 638 l 449 813 l 271 813 l 271 1026 l 90 981 l 90 813 l 21 813 l 21 638 l 90 638 l 90 521 l 22 521 l 22 363 l 90 363 l 90 196 b 285 0 90 83 174 0 l 463 0 z "},"Ŋ":{"ha":847,"x_min":0,"x_max":0,"o":"m 771 29 l 771 1097 l 576 1097 l 576 456 l 260 1097 l 76 1097 l 76 0 l 271 0 l 271 639 l 589 0 l 640 0 l 639 -146 b 586 -237 638 -204 626 -237 b 533 -150 550 -237 533 -204 b 532 -125 533 -119 532 -156 l 401 -125 l 401 -162 b 588 -364 400 -267 479 -364 b 771 -161 701 -364 771 -268 l 771 0 z "},"ŋ":{"ha":699,"x_min":0,"x_max":0,"o":"m 629 29 l 629 624 b 436 819 629 736 549 819 l 368 819 b 250 769 325 819 272 797 l 250 819 l 69 819 l 69 0 l 250 0 l 250 574 b 319 644 250 622 271 644 l 379 644 b 449 574 428 644 449 622 l 449 0 l 518 0 l 517 -144 b 454 -251 515 -206 504 -251 b 392 -149 408 -251 392 -206 b 392 -133 392 -142 392 -133 l 279 -132 l 279 -161 b 456 -364 279 -267 354 -364 b 629 -161 563 -364 629 -269 l 629 0 z "},"Ĳ":{"ha":1111,"x_min":0,"x_max":0,"o":"m 271 1097 l 76 1097 l 76 0 l 271 0 z m 1035 1097 l 840 1097 l 840 286 b 743 189 840 224 806 189 l 632 189 b 535 275 569 189 535 226 l 340 226 b 590 0 356 99 456 0 l 785 0 b 1035 250 924 0 1035 111 z "},"ĳ":{"ha":628,"x_min":0,"x_max":0,"o":"m 250 819 l 69 819 l 69 0 l 250 0 z m 558 819 l 378 819 l 378 -33 b 308 -103 378 -82 357 -103 l 253 -103 l 253 -278 l 378 -278 b 558 -103 489 -278 558 -215 z m 250 1096 l 69 1096 l 69 921 l 250 921 z m 558 1096 l 378 1096 l 378 921 l 558 921 z "},"Ŀ":{"ha":847,"x_min":0,"x_max":0,"o":"m 771 189 l 271 189 l 271 1097 l 76 1097 l 76 0 l 771 0 z m 646 689 l 451 689 l 451 500 l 646 500 z "},"ŀ":{"ha":531,"x_min":0,"x_max":0,"o":"m 250 1097 l 69 1097 l 69 0 l 250 0 z m 565 688 l 371 688 l 371 499 l 565 499 z "},"Ḃ":{"ha":847,"x_min":0,"x_max":0,"o":"m 576 286 b 479 189 576 225 542 189 l 326 189 l 326 453 l 479 453 b 576 356 542 453 576 418 l 576 286 z m 576 739 b 479 642 576 676 542 642 l 326 642 l 326 908 l 479 908 b 576 811 542 908 576 874 l 576 739 z m 771 368 b 678 550 771 493 714 526 b 771 732 711 568 771 611 l 771 847 b 521 1097 771 986 660 1097 l 76 1097 l 76 908 l 132 908 l 132 189 l 76 189 l 76 0 l 521 0 b 771 250 660 0 771 111 z m 503 1354 l 308 1354 l 308 1165 l 503 1165 z "},"ḃ":{"ha":726,"x_min":0,"x_max":0,"o":"m 476 246 b 407 175 476 197 456 175 l 319 175 b 250 246 271 175 250 197 l 250 574 b 319 644 250 622 271 644 l 407 644 b 476 574 456 644 476 622 l 476 246 z m 657 625 b 464 819 657 738 575 819 l 368 819 b 250 769 319 819 278 804 l 250 1097 l 69 1097 l 69 0 l 215 0 l 233 47 b 354 0 261 13 306 0 l 464 0 b 657 194 575 0 657 82 z m 524 1078 l 329 1078 l 329 889 l 524 889 z "},"Ċ":{"ha":847,"x_min":0,"x_max":0,"o":"m 576 275 b 479 189 576 222 540 189 l 368 189 b 271 286 306 189 271 224 l 271 811 b 368 908 271 874 306 908 l 479 908 b 576 819 542 908 576 867 l 771 868 b 521 1097 760 990 660 1097 l 326 1097 b 76 847 188 1097 76 986 l 76 250 b 326 0 76 111 188 0 l 521 0 b 771 226 660 0 758 107 z m 532 1356 l 338 1356 l 338 1167 l 532 1167 z "},"ċ":{"ha":715,"x_min":0,"x_max":0,"o":"m 465 238 b 396 175 463 194 442 175 l 319 175 b 250 246 271 175 250 197 l 250 574 b 319 644 250 622 271 644 l 396 644 b 465 582 442 644 463 625 l 646 628 b 453 819 644 739 564 819 l 263 819 b 69 625 151 819 69 738 l 69 194 b 263 0 69 82 151 0 l 453 0 b 646 192 563 0 644 81 z m 457 1078 l 263 1078 l 263 889 l 457 889 z "},"Ḋ":{"ha":847,"x_min":0,"x_max":0,"o":"m 576 286 b 479 189 576 222 542 189 l 326 189 l 326 908 l 479 908 b 576 811 542 908 576 874 l 576 286 z m 771 847 b 521 1097 771 986 660 1097 l 76 1097 l 76 908 l 132 908 l 132 189 l 76 189 l 76 0 l 521 0 b 771 250 660 0 771 111 z m 519 1350 l 325 1350 l 325 1161 l 519 1161 z "},"ḋ":{"ha":726,"x_min":0,"x_max":0,"o":"m 476 246 b 407 175 476 197 456 175 l 319 175 b 250 246 271 175 250 197 l 250 574 b 319 644 250 622 271 644 l 407 644 b 476 574 456 644 476 622 l 476 246 z m 657 1097 l 476 1097 l 476 769 b 358 819 449 804 407 819 l 263 819 b 69 625 151 819 69 738 l 69 194 b 263 0 69 82 151 0 l 375 0 b 492 49 428 0 467 17 l 513 0 l 657 0 z m 388 1078 l 193 1078 l 193 889 l 388 889 z "},"Ė":{"ha":847,"x_min":0,"x_max":0,"o":"m 771 189 l 271 189 l 271 454 l 632 454 l 632 643 l 271 643 l 271 908 l 771 908 l 771 1097 l 76 1097 l 76 0 l 771 0 z m 524 1349 l 329 1349 l 329 1160 l 524 1160 z "},"ė":{"ha":706,"x_min":0,"x_max":0,"o":"m 456 493 l 250 493 l 250 575 b 321 644 250 624 271 644 l 386 644 b 456 575 435 644 457 624 z m 636 624 b 442 819 636 736 554 819 l 263 819 b 69 625 151 819 69 736 l 69 194 b 265 0 69 82 153 0 l 435 0 b 629 182 547 0 629 69 l 629 194 l 458 238 b 389 175 456 197 438 175 l 321 175 b 250 246 274 175 250 197 l 250 317 l 636 317 z m 449 1078 l 254 1078 l 254 889 l 449 889 z "},"Ḟ":{"ha":847,"x_min":0,"x_max":0,"o":"m 771 1097 l 76 1097 l 76 0 l 271 0 l 271 454 l 632 454 l 632 643 l 271 643 l 271 908 l 771 908 z m 524 1356 l 329 1356 l 329 1167 l 524 1167 z "},"ḟ":{"ha":483,"x_min":0,"x_max":0,"o":"m 463 1096 l 285 1096 b 90 900 174 1096 90 1013 l 90 813 l 21 813 l 21 638 l 90 638 l 90 0 l 271 0 l 271 638 l 449 638 l 449 813 l 271 813 l 271 851 b 340 921 271 900 292 921 l 463 921 z m 368 1353 l 174 1353 l 174 1164 l 368 1164 z "},"Ġ":{"ha":847,"x_min":0,"x_max":0,"o":"m 771 579 l 438 579 l 438 390 l 576 390 l 576 286 b 479 189 576 224 542 189 l 368 189 b 271 286 306 189 271 224 l 271 811 b 368 908 271 874 306 908 l 479 908 b 576 824 542 908 576 868 l 771 872 b 521 1097 753 997 660 1097 l 326 1097 b 76 847 188 1097 76 986 l 76 250 b 326 0 76 111 188 0 l 521 0 b 771 250 660 0 771 111 z m 524 1354 l 329 1354 l 329 1165 l 524 1165 z "},"ġ":{"ha":726,"x_min":0,"x_max":0,"o":"m 476 285 b 407 215 476 236 456 215 l 319 215 b 250 285 271 215 250 236 l 250 574 b 319 644 250 622 271 644 l 407 644 b 476 574 456 644 476 622 l 476 285 z m 657 819 l 511 819 l 490 774 b 372 819 468 800 421 819 l 263 819 b 69 626 151 819 69 738 l 69 233 b 263 39 69 121 150 39 l 358 39 b 476 89 401 39 454 61 l 476 -32 b 407 -103 476 -81 454 -103 l 332 -103 b 261 -40 282 -103 264 -81 l 90 -83 l 90 -96 b 285 -278 90 -208 172 -278 l 463 -278 b 657 -85 575 -278 657 -197 z m 465 1078 l 271 1078 l 271 889 l 465 889 z "},"İ":{"ha":347,"x_min":0,"x_max":0,"o":"m 271 1097 l 76 1097 l 76 0 l 271 0 z m 271 1350 l 76 1350 l 76 1161 l 271 1161 z "},"Ṁ":{"ha":847,"x_min":0,"x_max":0,"o":"m 771 1097 l 590 1097 l 436 667 b 424 649 435 663 429 649 b 411 667 418 649 413 663 l 257 1097 l 76 1097 l 76 0 l 271 0 l 271 521 b 279 538 271 526 272 538 b 292 524 286 538 290 528 l 408 210 b 424 194 411 203 415 194 b 439 210 432 194 436 203 l 556 525 b 568 540 557 529 563 540 b 576 522 575 540 576 526 l 576 0 l 771 0 z m 521 1356 l 326 1356 l 326 1167 l 521 1167 z "},"ṁ":{"ha":1024,"x_min":0,"x_max":0,"o":"m 954 624 b 761 819 954 736 874 819 l 714 819 b 564 746 643 819 592 788 b 415 819 536 788 485 819 l 368 819 b 250 769 325 819 272 797 l 250 819 l 69 819 l 69 0 l 250 0 l 250 574 b 319 644 250 622 271 644 l 351 644 b 421 574 400 644 421 622 l 421 0 l 603 0 l 603 574 b 672 644 603 622 624 644 l 704 644 b 774 574 753 644 774 622 l 774 0 l 954 0 z m 610 1078 l 415 1078 l 415 889 l 610 889 z "},"Ṗ":{"ha":847,"x_min":0,"x_max":0,"o":"m 576 740 b 479 643 576 678 542 643 l 271 643 l 271 908 l 479 908 b 576 811 542 908 576 874 l 576 740 z m 771 847 b 521 1097 771 986 660 1097 l 76 1097 l 76 0 l 271 0 l 271 454 l 521 454 b 771 704 660 454 771 565 z m 499 1354 l 304 1354 l 304 1165 l 499 1165 z "},"ṗ":{"ha":726,"x_min":0,"x_max":0,"o":"m 476 246 b 407 176 476 197 456 176 l 319 176 b 250 246 271 176 250 197 l 250 574 b 319 644 250 622 271 644 l 407 644 b 476 574 456 644 476 622 l 476 246 z m 657 625 b 464 819 657 738 575 819 l 354 819 b 235 771 306 819 263 806 l 214 819 l 69 819 l 69 -278 l 250 -278 l 250 50 b 368 0 278 15 319 0 l 464 0 b 657 194 575 0 657 82 z m 464 1078 l 269 1078 l 269 889 l 464 889 z "},"Ṡ":{"ha":847,"x_min":0,"x_max":0,"o":"m 771 357 b 589 586 771 472 696 543 l 328 690 b 271 797 281 710 271 735 l 271 811 b 368 908 271 874 306 908 l 479 908 b 576 821 542 908 572 875 l 771 869 b 521 1097 760 988 661 1097 l 326 1097 b 76 847 188 1097 76 986 l 76 765 b 261 514 76 628 167 551 l 514 413 b 576 324 563 393 576 372 l 576 286 b 479 189 576 224 542 189 l 368 189 b 271 279 306 189 274 222 l 76 231 b 326 0 90 103 188 0 l 521 0 b 771 250 660 0 771 111 z m 526 1354 l 332 1354 l 332 1165 l 526 1165 z "},"ṡ":{"ha":715,"x_min":0,"x_max":0,"o":"m 646 249 b 504 449 646 360 578 422 l 289 528 b 250 579 258 539 250 554 l 250 588 b 319 644 250 622 271 644 l 396 644 b 465 582 442 644 463 625 l 646 628 b 453 819 644 739 564 819 l 263 819 b 69 625 151 819 69 736 l 69 569 b 217 368 69 461 149 393 l 421 293 b 465 244 454 281 465 265 l 465 239 b 396 175 465 197 444 175 l 321 175 b 250 238 274 175 253 194 l 69 192 b 264 0 71 81 153 0 l 453 0 b 646 194 564 0 646 82 z m 458 1078 l 264 1078 l 264 889 l 458 889 z "},"Ṫ":{"ha":847,"x_min":0,"x_max":0,"o":"m 771 1097 l 76 1097 l 76 908 l 326 908 l 326 0 l 521 0 l 521 908 l 771 908 z m 521 1356 l 326 1356 l 326 1167 l 521 1167 z "},"ṫ":{"ha":497,"x_min":0,"x_max":0,"o":"m 463 175 l 340 175 b 271 244 292 175 271 196 l 271 638 l 449 638 l 449 813 l 271 813 l 271 1026 l 90 981 l 90 813 l 21 813 l 21 638 l 90 638 l 90 196 b 285 0 90 83 174 0 l 463 0 z m 285 1286 l 90 1286 l 90 1097 l 285 1097 z "},"Ż":{"ha":847,"x_min":0,"x_max":0,"o":"m 771 189 l 306 189 l 771 917 l 771 1097 l 76 1099 l 76 910 l 543 910 l 76 181 l 76 0 l 771 0 z m 525 1356 l 331 1356 l 331 1167 l 525 1167 z "},"ż":{"ha":711,"x_min":0,"x_max":0,"o":"m 642 175 l 300 175 l 642 681 l 642 819 l 69 819 l 69 644 l 413 644 l 69 139 l 69 0 l 642 0 z m 450 1078 l 256 1078 l 256 889 l 450 889 z "},"⁊":{"ha":660,"x_min":0,"x_max":0,"o":"m 69 819 l 69 644 l 399 644 l 250 -142 l 439 -142 l 590 674 l 590 819 z "},"ſ":{"ha":463,"x_min":0,"x_max":0,"o":"m 463 1096 l 285 1096 b 90 900 174 1096 90 1013 l 90 806 l 21 806 l 21 631 l 90 631 l 90 0 l 271 0 l 271 851 b 340 921 271 900 292 921 l 463 921 z "},"­":{"ha":444,"x_min":0,"x_max":0,"o":"m 417 571 l 28 571 l 28 382 l 417 382 z "},"̦":{"ha":1056,"x_min":0,"x_max":0,"o":"m 457 -61 l 386 -371 l 483 -404 l 619 -118 z "},"₽":{"ha":861,"x_min":0,"x_max":0,"o":"m 590 747 b 493 650 590 685 556 650 l 285 650 l 285 908 l 493 908 b 590 811 556 908 590 874 l 590 747 z m 785 847 b 535 1097 785 986 674 1097 l 90 1097 l 90 650 l 35 650 l 35 461 l 90 461 l 90 351 l 35 351 l 35 163 l 90 163 l 90 0 l 285 0 l 285 163 l 563 163 l 563 351 l 285 351 l 285 461 l 535 461 b 785 711 674 461 785 572 z "}}}
